<svg width="24" height="12" viewBox="0 0 24 12" fill="none" xmlns="http://www.w3.org/2000/svg">
<path d="M21.0461 1.99066H18.9541V4.00075H21.0461V1.99066Z" fill="#0E0E11"/>
<path d="M23.092 0H21V2.01009H23.092V0Z" fill="#0E0E11"/>
<path d="M18.9541 4.00073H16.8406V5.99039H18.9541V4.00073Z" fill="#0E0E11"/>
<path d="M16.8416 5.99042H14.728V8.0005H16.8416V5.99042Z" fill="#0E0E11"/>
<path d="M14.728 8.00049H12.636V9.99014H14.728V8.00049Z" fill="#0E0E11"/>
<path d="M12.636 9.99017H10.5225V12.0003H12.636V9.99017Z" fill="#0E0E11"/>
<path d="M10.5237 8.00049H8.41016V9.99014H10.5237V8.00049Z" fill="#0E0E11"/>
<path d="M8.41014 5.99042H6.31812V8.0005H8.41014V5.99042Z" fill="#0E0E11"/>
<path d="M6.31811 4.00073H4.20459V5.99039H6.31811V4.00073Z" fill="#0E0E11"/>
<path d="M4.20557 1.99066H2.09204V4.00075H4.20557V1.99066Z" fill="#0E0E11"/>
<path d="M2.11352 0H0V2.01009H2.11352V0Z" fill="#0E0E11"/>
</svg>
