<svg width="41" height="40" viewBox="0 0 41 40" fill="none" xmlns="http://www.w3.org/2000/svg">
<g clip-path="url(#clip0_34_8189)">
<path fill-rule="evenodd" clip-rule="evenodd" d="M40.1 25.9099C40.1 26.9117 39.4657 27.3786 38.3303 27.3786H36.1606V26.3769H38.3303C38.5308 26.3769 38.6978 26.3436 38.7648 26.2772C38.8314 26.2102 38.8982 26.11 38.8982 25.9766C38.8982 25.8431 38.8316 25.7093 38.7648 25.6427C38.6978 25.5757 38.5644 25.5425 38.3639 25.5425C37.3292 25.5089 36.0268 25.5757 36.0268 24.1067C36.0268 23.4386 36.4606 22.7041 37.6292 22.7041H39.8662V23.7058H37.7961C37.5962 23.7058 37.4622 23.7058 37.3622 23.7724C37.262 23.8727 37.1954 23.9729 37.1954 24.1399C37.1954 24.3069 37.2956 24.4071 37.429 24.4741C37.5628 24.5073 37.6964 24.5407 37.8634 24.5407H38.4642C39.0985 24.5407 39.4993 24.6742 39.7665 24.9082C39.9664 25.1418 40.1 25.4427 40.1 25.9099ZM35.3923 24.9082C35.125 24.6742 34.7242 24.5407 34.0899 24.5407H33.4892C33.3223 24.5407 33.1885 24.5071 33.0553 24.4741C32.9215 24.4071 32.8216 24.3069 32.8216 24.1399C32.8216 23.9729 32.8549 23.8727 32.9885 23.7724C33.0887 23.7058 33.2221 23.7058 33.4224 23.7058H35.4925V22.7041H33.2555C32.0533 22.7041 31.6525 23.4386 31.6525 24.1067C31.6525 25.5753 32.9549 25.5087 33.99 25.5425C34.1899 25.5425 34.3239 25.5757 34.3903 25.6427C34.457 25.7093 34.5241 25.8426 34.5241 25.9766C34.5241 26.1105 34.4571 26.2102 34.3903 26.2772C34.2901 26.3438 34.1567 26.3769 33.9564 26.3769H31.7861V27.3786H33.9564C35.0914 27.3786 35.7259 26.9115 35.7259 25.9099C35.7259 25.4427 35.5925 25.1416 35.3921 24.9082H35.3923ZM31.1184 26.4108H28.4811V25.4759H31.0518V24.5413H28.4811V23.6728H31.1184V22.7046H27.3792V27.3788H31.1184V26.4106V26.4108ZM26.177 22.9386C25.8095 22.7382 25.3757 22.7046 24.808 22.7046H22.2373V27.3788H23.3723V25.6761H24.5745C24.9748 25.6761 25.2088 25.7097 25.3758 25.8765C25.5763 26.1102 25.5763 26.5108 25.5763 26.8115V27.3788H26.6779V26.4773C26.6779 26.0434 26.6446 25.8429 26.511 25.6093C26.4108 25.4755 26.211 25.3087 25.9437 25.2084C26.2438 25.1088 26.745 24.7079 26.745 23.9731C26.7449 23.4391 26.5444 23.1385 26.177 22.9386ZM19.8332 22.7046H16.2604L14.8246 24.2407L13.4556 22.7046H8.94805V27.3788H13.3889L14.8248 25.8428L16.1938 27.3788H18.3641V25.8099H19.7665C20.7347 25.8099 21.7032 25.5427 21.7032 24.2405C21.7031 22.9717 20.7013 22.7044 19.833 22.7044L19.8332 22.7046ZM25.2754 24.6413C25.1086 24.7079 24.9416 24.7079 24.7414 24.7079L23.3723 24.7415V23.6728H24.7414C24.9418 23.6728 25.1422 23.6728 25.2754 23.773C25.4093 23.84 25.5091 23.9734 25.5091 24.1739C25.5091 24.3743 25.4094 24.5413 25.2754 24.6415V24.6413ZM19.8332 24.875H18.3639V23.6728H19.8332C20.234 23.6728 20.5009 23.84 20.5009 24.2407C20.5009 24.6413 20.2336 24.875 19.8332 24.875ZM15.5259 25.0418L17.262 23.2057V26.9785L15.5259 25.0418ZM12.8214 26.411H10.0502V25.4761H12.521V24.5415H10.0502V23.673H12.8549L14.0902 25.042L12.8214 26.411ZM36.9949 19.3325H35.3925L33.2889 15.8265V19.3325H31.0189L30.5845 18.2973H28.2473L27.8134 19.3325H26.511C25.9769 19.3325 25.2756 19.1989 24.8753 18.798C24.5079 18.3975 24.3075 17.8632 24.3075 17.0285C24.3075 16.3274 24.4077 15.6929 24.9082 15.1922C25.242 14.8248 25.8431 14.6581 26.6109 14.6581H27.6792V15.6599H26.6109C26.2106 15.6599 25.9766 15.7267 25.7429 15.9271C25.5425 16.1275 25.4423 16.4946 25.4423 16.9955C25.4423 17.4964 25.5425 17.8636 25.7429 18.0975C25.9098 18.2643 26.2106 18.3311 26.5107 18.3311H27.0117L28.6142 14.6585H30.2838L32.1535 19.0658V14.6583H33.89L35.8599 17.897V14.6583H36.9949V19.3328H36.9951L36.9949 19.3325ZM23.7398 14.6579H22.6048V19.3325H23.7398V14.6581V14.6579ZM21.369 14.8584C21.0016 14.6579 20.6013 14.6579 20.0338 14.6579H17.4626V19.3325H18.5644V17.6294H19.7664C20.1672 17.6294 20.4344 17.6628 20.6011 17.8298C20.8015 18.0637 20.7679 18.4645 20.7679 18.7314V19.3323H21.9029V18.3973C21.9029 17.9969 21.8697 17.7964 21.7031 17.5626C21.6028 17.429 21.4024 17.262 21.169 17.1621C21.469 17.0285 21.9703 16.6614 21.9703 15.9267C21.9705 15.3926 21.7365 15.092 21.3694 14.8584H21.369ZM16.6613 18.3643H14.057V17.4294H16.6279V16.4612H14.057V15.6265H16.6613V14.6583H12.9218V19.3328H16.6613V18.3645V18.3643ZM12.0869 14.6579H10.2506L8.88161 17.8298L7.41238 14.6579H5.60949V19.0652L3.70638 14.6579H2.03691L0.0335909 19.3321H1.23558L1.66947 18.2969H4.00664L4.44053 19.3321H6.71108V15.6595L8.34696 19.3321H9.31512L10.9514 15.6595V19.3321H12.0866V14.6576H12.0867L12.0869 14.6579ZM30.184 17.2956L29.4157 15.4593L28.648 17.2956H30.184ZM20.5011 16.5612C20.3342 16.6614 20.1672 16.6614 19.9336 16.6614H18.5644V15.6265H19.9334C20.1338 15.6265 20.3671 15.6265 20.5009 15.6933C20.6343 15.7935 20.7013 15.9271 20.7013 16.1272C20.7013 16.3272 20.6345 16.494 20.5011 16.561V16.5612ZM2.07032 17.2956L2.83824 15.4593L3.60617 17.2956H2.07013H2.07032ZM39.8332 0H0V16.8281L1.36901 13.723H4.27369L4.67454 14.4909V13.723H8.08028L8.84821 15.3923L9.58273 13.723H20.4343C20.9348 13.723 21.3688 13.8232 21.7031 14.0902V13.723H24.6745V14.0902C25.175 13.823 25.8095 13.723 26.5442 13.723H30.8513L31.2522 14.4909V13.723H34.4241L34.8918 14.4909V13.723H37.9967V20.2672H34.8584L34.2576 19.2657V20.2672H30.3508L29.917 19.1989H28.9484L28.5145 20.2672H26.478C25.6767 20.2672 25.0754 20.0668 24.6751 19.8668V20.2672H19.8337V18.7646C19.8337 18.5642 19.8003 18.5308 19.6667 18.5308H19.4999V20.2669H10.1508V19.4321L9.81693 20.2669H7.84701L7.51316 19.4655V20.2669H3.73978L3.33931 19.1985H2.37096L1.93707 20.2669H0V39.9998H39.8332V28.0129C39.3993 28.2133 38.798 28.3136 38.1969 28.3136H35.2921V27.9127C34.9582 28.1801 34.3571 28.3136 33.7898 28.3136H24.6411V26.8113C24.6411 26.6109 24.6079 26.6109 24.4407 26.6109H24.2739V28.3136H21.2688V26.5441C20.7683 26.7777 20.2004 26.7777 19.6997 26.7777H19.3657V28.3137H15.6931L14.8251 27.312L13.857 28.3137H7.94648V21.7699H13.9564L14.8246 22.7712L15.7595 21.7699H19.7996C20.2667 21.7699 21.035 21.8365 21.3686 22.1702V21.7699H24.9744C25.3419 21.7699 26.0432 21.8365 26.5105 22.1702V21.7699H31.9529V22.1703C32.2536 21.9031 32.8214 21.7701 33.322 21.7701H36.3602V22.1703C36.6945 21.9367 37.1616 21.7701 37.7629 21.7701H39.833V0H39.8332Z" fill="white"/>
</g>
<defs>
<clipPath id="clip0_34_8189">
<rect width="40.1" height="40" fill="white"/>
</clipPath>
</defs>
</svg>
