<svg width="1369" height="627" viewBox="0 0 1369 627" fill="none" xmlns="http://www.w3.org/2000/svg">
<g clip-path="url(#clip0_0_1)">
<path d="M1367 0H0V627H1367V0Z" fill="#F5DFCE"/>
<path d="M0 525.22L100.247 500L76.0204 619.6L0 525.22Z" fill="#D9BA38"/>
<mask id="mask0_0_1" style="mask-type:luminance" maskUnits="userSpaceOnUse" x="16" y="507" width="101" height="121">
<path d="M16.0053 532.64L116.261 507.42L92.0352 627.02L16.0053 532.64Z" fill="white"/>
</mask>
<g mask="url(#mask0_0_1)">
<path d="M55.8571 508.65C55.0217 509 54.0914 508.57 53.7687 507.69C53.4459 506.81 53.8541 505.83 54.68 505.48L59.9012 503.31C60.7366 502.96 61.6669 503.4 61.9991 504.27C62.3219 505.15 61.9137 506.14 61.0878 506.48L55.8571 508.64V508.65Z" fill="#7B009A"/>
<path d="M78.6026 513.62C78.052 514.36 77.0267 514.48 76.3337 513.9C75.6312 513.32 75.5173 512.25 76.0679 511.51L79.5424 506.87C80.1025 506.13 81.1087 506 81.8112 506.58C82.5137 507.17 82.6276 508.24 82.077 508.97L78.6026 513.62Z" fill="#7B009A"/>
<path d="M69.0905 510.09C68.8057 510.98 67.8849 511.46 67.04 511.16C66.1951 510.86 65.7394 509.9 66.0242 509L67.8089 503.39C68.0937 502.5 69.005 502.02 69.8594 502.32C70.7043 502.62 71.16 503.59 70.8752 504.48L69.0905 510.09Z" fill="#7B009A"/>
<path d="M94.4559 516.53C95.2533 516.1 96.2216 516.43 96.6298 517.27C97.038 518.11 96.7247 519.13 95.9273 519.56L90.934 522.26C90.1365 522.69 89.1683 522.36 88.7601 521.52C88.3519 520.69 88.6651 519.66 89.4625 519.23L94.4559 516.53Z" fill="#7B009A"/>
<path d="M87.6589 505.78C87.9247 504.88 88.836 504.39 89.6809 504.67C90.5353 504.95 91.0099 505.91 90.7346 506.81L89.0449 512.45C88.7791 513.35 87.8677 513.84 87.0229 513.56C86.1685 513.28 85.6938 512.32 85.9691 511.43L87.6589 505.79V505.78Z" fill="#7B009A"/>
<path d="M98.8227 511.15C98.2531 510.42 98.3576 509.35 99.0411 508.76C99.7246 508.16 100.75 508.26 101.319 508.99L104.889 513.56C105.458 514.29 105.354 515.36 104.67 515.96C103.977 516.56 102.962 516.45 102.392 515.73L98.8227 511.16V511.15Z" fill="#7B009A"/>
<path d="M111.724 513.94C111.173 514.68 110.148 514.81 109.455 514.23C108.752 513.65 108.639 512.58 109.189 511.84L112.664 507.19C113.214 506.45 114.23 506.33 114.932 506.91C115.635 507.49 115.758 508.56 115.198 509.3L111.724 513.94Z" fill="#7B009A"/>
<path d="M106.037 507.57C106.322 508.47 105.867 509.43 105.022 509.73C104.177 510.03 103.256 509.55 102.971 508.66L101.177 503.05C100.892 502.16 101.348 501.19 102.193 500.9C103.038 500.6 103.958 501.08 104.243 501.97L106.037 507.57Z" fill="#7B009A"/>
<path d="M80.729 522.69C79.941 522.25 79.6468 521.22 80.0645 520.39C80.4822 519.56 81.4599 519.24 82.2479 519.69L87.2032 522.47C87.9912 522.91 88.295 523.95 87.8773 524.77C87.4596 525.6 86.4818 525.92 85.6843 525.47L80.729 522.69Z" fill="#7B009A"/>
<path d="M75.8021 533.98C74.9477 534.26 74.0459 533.76 73.7801 532.86C73.5143 531.96 73.9889 531.01 74.8433 530.73L80.1974 528.96C81.0518 528.68 81.9536 529.18 82.2194 530.08C82.4852 530.97 82.0106 531.93 81.1562 532.21L75.7926 533.97L75.8021 533.98Z" fill="#7B009A"/>
<path d="M74.6155 527.03C74.3687 527.94 73.4763 528.46 72.6219 528.21C71.7676 527.95 71.2644 527.01 71.5018 526.11L73.0301 520.42C73.277 519.52 74.1598 518.99 75.0237 519.24C75.878 519.5 76.3812 520.44 76.1439 521.35L74.6155 527.04V527.03Z" fill="#7B009A"/>
<path d="M107.67 522.12C106.787 522.22 105.98 521.55 105.886 520.61C105.791 519.67 106.427 518.84 107.31 518.73L112.891 518.07C113.774 517.96 114.581 518.64 114.676 519.57C114.781 520.51 114.135 521.35 113.252 521.46L107.67 522.12Z" fill="#7B009A"/>
<path d="M109.949 534.42C109.398 535.16 108.382 535.28 107.68 534.7C106.977 534.12 106.854 533.05 107.414 532.31L110.888 527.67C111.439 526.93 112.455 526.8 113.157 527.39C113.86 527.97 113.983 529.04 113.423 529.78L109.939 534.43L109.949 534.42Z" fill="#7B009A"/>
<path d="M104.547 523.45C104.832 524.35 104.376 525.31 103.531 525.61C102.686 525.91 101.775 525.43 101.481 524.54L99.6866 518.93C99.4018 518.04 99.8575 517.07 100.702 516.77C101.547 516.47 102.468 516.95 102.753 517.84L104.547 523.44V523.45Z" fill="#7B009A"/>
<path d="M93.611 530.51C92.7282 530.62 91.9213 529.94 91.8263 529.01C91.7219 528.08 92.3674 527.24 93.2503 527.13L98.8322 526.47C99.7151 526.36 100.522 527.03 100.617 527.97C100.712 528.9 100.076 529.74 99.193 529.85L93.611 530.51Z" fill="#7B009A"/>
<path d="M95.595 542.76C95.0445 543.5 94.0287 543.63 93.3262 543.04C92.6237 542.46 92.5098 541.39 93.0604 540.65L96.5349 536C97.095 535.26 98.1012 535.14 98.8037 535.72C99.5062 536.3 99.6201 537.38 99.0695 538.11L95.595 542.75V542.76Z" fill="#7B009A"/>
<path d="M86.0925 539.23C85.8077 540.12 84.8869 540.61 84.0515 540.3C83.2066 540.01 82.751 539.04 83.0358 538.15L84.8205 532.54C85.1053 531.64 86.0166 531.16 86.871 531.46C87.7158 531.76 88.1715 532.73 87.8867 533.61L86.102 539.22L86.0925 539.23Z" fill="#7B009A"/>
<path d="M104.946 541.37C105.734 540.94 106.711 541.27 107.12 542.11C107.528 542.95 107.215 543.97 106.417 544.4L101.424 547.1C100.626 547.53 99.6581 547.2 99.2499 546.36C98.8417 545.53 99.155 544.5 99.9524 544.07L104.946 541.37Z" fill="#7B009A"/>
<path d="M102.307 531.63C102.573 530.73 103.484 530.23 104.338 530.51C105.193 530.79 105.667 531.75 105.392 532.65L103.712 538.29C103.446 539.19 102.535 539.69 101.68 539.41C100.826 539.12 100.361 538.17 100.626 537.27L102.316 531.63H102.307Z" fill="#7B009A"/>
<path d="M112.113 538.76C111.543 538.03 111.648 536.96 112.331 536.36C113.015 535.77 114.04 535.87 114.61 536.59L118.179 541.16C118.749 541.89 118.644 542.96 117.961 543.56C117.268 544.16 116.252 544.06 115.682 543.33L112.113 538.76Z" fill="#7B009A"/>
<path d="M96.7437 553.24C95.9558 552.8 95.652 551.77 96.0697 550.94C96.4874 550.11 97.4652 549.79 98.2531 550.23L103.209 553.01C103.996 553.45 104.291 554.48 103.873 555.31C103.455 556.14 102.478 556.46 101.69 556.02L96.7342 553.24H96.7437Z" fill="#7B009A"/>
<path d="M90.3454 566.64C89.491 566.92 88.5892 566.42 88.3234 565.52C88.0576 564.62 88.5322 563.67 89.3866 563.38L94.7502 561.62C95.6045 561.33 96.5064 561.84 96.7722 562.74C97.038 563.64 96.5634 564.59 95.709 564.87L90.3454 566.64Z" fill="#7B009A"/>
<path d="M91.5228 554.48C91.2759 555.39 90.3836 555.91 89.5292 555.66C88.6748 555.4 88.1717 554.46 88.409 553.56L89.9374 547.87C90.1748 546.97 91.0766 546.44 91.931 546.7C92.7948 546.96 93.2885 547.9 93.0511 548.8L91.5228 554.49V554.48Z" fill="#7B009A"/>
<path d="M110.632 559.69C109.74 559.79 108.942 559.12 108.847 558.19C108.743 557.25 109.388 556.41 110.271 556.31L115.853 555.65C116.746 555.54 117.543 556.21 117.638 557.15C117.742 558.08 117.097 558.92 116.214 559.03L110.632 559.69Z" fill="#7B009A"/>
<path d="M112.616 571.94C112.056 572.67 111.04 572.8 110.347 572.22C109.645 571.64 109.531 570.57 110.081 569.83L113.556 565.19C114.107 564.45 115.122 564.32 115.825 564.9C116.527 565.48 116.641 566.55 116.091 567.29L112.616 571.94Z" fill="#7B009A"/>
<path d="M103.104 568.41C102.819 569.31 101.908 569.79 101.063 569.48C100.218 569.19 99.7625 568.22 100.047 567.33L101.832 561.72C102.117 560.83 103.038 560.34 103.883 560.65C104.727 560.95 105.183 561.91 104.898 562.8L103.114 568.41H103.104Z" fill="#7B009A"/>
<path d="M114.743 581.01C113.955 580.57 113.651 579.54 114.078 578.71C114.496 577.88 115.473 577.56 116.261 578L121.217 580.78C122.005 581.22 122.308 582.25 121.891 583.09C121.464 583.92 120.495 584.23 119.698 583.79L114.743 581.01Z" fill="#7B009A"/>
<path d="M109.816 592.3C108.961 592.58 108.059 592.08 107.794 591.18C107.528 590.28 108.002 589.33 108.857 589.05L114.22 587.29C115.075 587.01 115.977 587.51 116.242 588.41C116.508 589.31 116.034 590.26 115.179 590.54L109.816 592.3Z" fill="#7B009A"/>
<path d="M108.544 583.66C108.297 584.57 107.404 585.09 106.55 584.84C105.696 584.58 105.193 583.64 105.439 582.74L106.968 577.04C107.215 576.14 108.107 575.61 108.961 575.87C109.816 576.12 110.319 577.06 110.081 577.97L108.553 583.66H108.544Z" fill="#7B009A"/>
<path d="M23.7991 506.66C24.5586 506.18 25.5554 506.43 26.0205 507.24C26.4857 508.04 26.2389 509.09 25.4794 509.58L20.6854 512.65C19.926 513.14 18.9292 512.88 18.464 512.08C17.9989 511.27 18.2457 510.23 19.0052 509.74L23.8086 506.66H23.7991Z" fill="#7B009A"/>
<path d="M11.3443 513.82C10.5279 513.44 10.1577 512.43 10.5184 511.57C10.8791 510.71 11.8379 510.32 12.6543 510.7L17.7901 513.1C18.6065 513.48 18.9767 514.48 18.616 515.34C18.2552 516.2 17.2964 516.59 16.48 516.21L11.3443 513.81V513.82Z" fill="#7B009A"/>
<path d="M44.2282 508.06C43.3359 508.17 42.5384 507.49 42.4435 506.56C42.3391 505.63 42.9846 504.79 43.8675 504.68L49.4494 504.02C50.3417 503.91 51.1392 504.59 51.2341 505.53C51.329 506.46 50.693 507.31 49.8101 507.41L44.2282 508.07V508.06Z" fill="#7B009A"/>
<path d="M46.2218 520.31C45.6617 521.05 44.6554 521.17 43.953 520.59C43.2505 520.01 43.1271 518.94 43.6872 518.2L47.1616 513.55C47.7122 512.81 48.728 512.68 49.4305 513.27C50.1329 513.85 50.2469 514.93 49.6963 515.66L46.2218 520.3V520.31Z" fill="#7B009A"/>
<path d="M38.8836 511.11C39.1684 512.01 38.7128 512.97 37.8679 513.27C37.023 513.57 36.1022 513.09 35.8174 512.2L34.0232 506.59C33.7384 505.7 34.1941 504.73 35.039 504.43C35.8838 504.13 36.8047 504.61 37.0895 505.49L38.8836 511.09V511.11Z" fill="#7B009A"/>
<path d="M27.9476 518.16C27.0648 518.27 26.2579 517.6 26.1629 516.66C26.0585 515.73 26.704 514.88 27.5869 514.78L33.1688 514.12C34.0612 514.02 34.8586 514.69 34.9535 515.62C35.0484 516.55 34.4124 517.4 33.5296 517.5L27.9476 518.16Z" fill="#7B009A"/>
<path d="M20.4291 526.89C20.1443 527.78 19.233 528.26 18.3786 527.96C17.5337 527.66 17.0781 526.7 17.3629 525.81L19.1476 520.2C19.4323 519.31 20.3437 518.82 21.1981 519.13C22.0429 519.43 22.4986 520.4 22.2138 521.28L20.4291 526.89Z" fill="#7B009A"/>
<path d="M44.9782 533.29C45.7756 532.86 46.7439 533.19 47.1521 534.03C47.5603 534.86 47.247 535.89 46.4496 536.32L41.4562 539.03C40.6588 539.46 39.6905 539.13 39.2823 538.29C38.8741 537.46 39.1874 536.43 39.9848 536L44.9782 533.3V533.29Z" fill="#7B009A"/>
<path d="M36.2256 526.05C36.4914 525.15 37.4027 524.66 38.2476 524.93C39.102 525.21 39.5766 526.17 39.3108 527.07L37.6211 532.71C37.3552 533.61 36.4439 534.1 35.5895 533.82C34.7352 533.54 34.27 532.58 34.5358 531.68L36.2256 526.04V526.05Z" fill="#7B009A"/>
<path d="M46.4496 526.41C45.88 525.68 45.9844 524.61 46.6774 524.02C47.3609 523.42 48.3861 523.53 48.9462 524.25L52.5156 528.82C53.0852 529.55 52.9903 530.62 52.2973 531.21C51.6043 531.81 50.5885 531.71 50.019 530.98L46.4496 526.41Z" fill="#7B009A"/>
<path d="M61.0689 518.49C60.1766 518.6 59.3791 517.93 59.2842 516.99C59.1798 516.05 59.8253 515.21 60.7082 515.11L66.2901 514.45C67.173 514.34 67.9704 515.02 68.0748 515.95C68.1697 516.89 67.5337 517.73 66.6508 517.83L61.0689 518.49Z" fill="#7B009A"/>
<path d="M63.0624 530.74C62.5119 531.48 61.4866 531.6 60.7936 531.02C60.0911 530.44 59.9677 529.37 60.5278 528.63L64.0023 523.99C64.5528 523.25 65.5686 523.12 66.2711 523.71C66.9736 524.29 67.097 525.36 66.5369 526.1L63.0624 530.75V530.74Z" fill="#7B009A"/>
<path d="M58.0596 527.07C58.3444 527.97 57.8887 528.93 57.0438 529.23C56.199 529.53 55.2781 529.05 54.9934 528.16L53.1992 522.55C52.9144 521.66 53.37 520.69 54.2149 520.39C55.0598 520.09 55.9806 520.57 56.2654 521.46L58.0596 527.06V527.07Z" fill="#7B009A"/>
<path d="M32.0676 539.49C31.2797 539.05 30.9759 538.02 31.4031 537.18C31.8208 536.35 32.7986 536.04 33.5865 536.48L38.5419 539.26C39.3298 539.7 39.6241 540.73 39.2064 541.56C38.7887 542.39 37.8109 542.7 37.023 542.26L32.0676 539.48V539.49Z" fill="#7B009A"/>
<path d="M27.1407 550.78C26.2863 551.06 25.3845 550.56 25.1187 549.66C24.8529 548.77 25.3275 547.81 26.1819 547.53L31.5454 545.77C32.3998 545.49 33.3017 545.99 33.577 546.89C33.8428 547.78 33.3681 548.74 32.5137 549.02L27.1502 550.78H27.1407Z" fill="#7B009A"/>
<path d="M25.8591 542.14C25.6123 543.04 24.72 543.57 23.8656 543.32C23.0112 543.06 22.5081 542.12 22.7549 541.22L24.2833 535.53C24.5301 534.62 25.4225 534.1 26.2768 534.35C27.1312 534.61 27.6343 535.55 27.397 536.45L25.8686 542.15L25.8591 542.14Z" fill="#7B009A"/>
<path d="M61.2302 537.2C60.3474 537.3 59.5405 536.63 59.4455 535.7C59.3411 534.77 59.9866 533.93 60.8695 533.82L66.4514 533.16C67.3343 533.05 68.1412 533.73 68.2361 534.66C68.331 535.59 67.695 536.44 66.8122 536.54L61.2302 537.2Z" fill="#7B009A"/>
<path d="M63.2143 549.45C62.6637 550.19 61.6384 550.31 60.9455 549.73C60.243 549.15 60.1196 548.08 60.6796 547.34L64.1541 542.7C64.7047 541.96 65.7205 541.84 66.4229 542.42C67.1254 543 67.2393 544.07 66.6888 544.81L63.2143 549.45Z" fill="#7B009A"/>
<path d="M55.8856 540.26C56.1704 541.15 55.7148 542.12 54.8699 542.42C54.025 542.72 53.1042 542.24 52.8194 541.35L51.0252 535.75C50.7404 534.85 51.1961 533.89 52.041 533.59C52.8859 533.29 53.8067 533.77 54.0915 534.66L55.8856 540.26Z" fill="#7B009A"/>
<path d="M44.9497 547.31C44.0573 547.42 43.2599 546.74 43.165 545.81C43.07 544.88 43.7061 544.04 44.5889 543.93L50.1708 543.27C51.0537 543.16 51.8606 543.84 51.9555 544.77C52.0505 545.7 51.4144 546.55 50.5316 546.65L44.9497 547.31Z" fill="#7B009A"/>
<path d="M47.7786 557.12C47.228 557.86 46.2122 557.98 45.5097 557.4C44.8072 556.82 44.6838 555.75 45.2344 555.02L48.7089 550.37C49.269 549.63 50.2752 549.51 50.9777 550.08C51.6802 550.66 51.8036 551.74 51.2435 552.47L47.7691 557.11L47.7786 557.12Z" fill="#7B009A"/>
<path d="M37.4217 556.04C37.1369 556.93 36.2255 557.41 35.3712 557.11C34.5263 556.81 34.0706 555.85 34.3554 554.95L36.1401 549.34C36.4249 548.45 37.3457 547.97 38.1906 548.26C39.0355 548.56 39.4912 549.53 39.2064 550.42L37.4217 556.03V556.04Z" fill="#7B009A"/>
<path d="M61.9707 562.44C62.7681 562.01 63.7364 562.34 64.1446 563.17C64.5528 564.01 64.2396 565.03 63.4421 565.47L58.4488 568.17C57.6514 568.6 56.6831 568.27 56.2749 567.43C55.8667 566.6 56.18 565.57 56.9774 565.14L61.9707 562.44Z" fill="#7B009A"/>
<path d="M55.9901 551.72C56.2654 550.82 57.1672 550.33 58.0216 550.61C58.876 550.89 59.3411 551.84 59.0753 552.75L57.3856 558.39C57.1103 559.29 56.2084 559.78 55.3541 559.5C54.4997 559.22 54.0345 558.26 54.3003 557.37L55.9806 551.73L55.9901 551.72Z" fill="#7B009A"/>
<path d="M63.4516 555.56C62.882 554.84 62.9865 553.76 63.67 553.17C64.363 552.57 65.3787 552.67 65.9483 553.4L69.5082 557.97C70.0778 558.7 69.9734 559.77 69.2899 560.37C68.5969 560.96 67.5811 560.86 67.0115 560.13L63.4421 555.56H63.4516Z" fill="#7B009A"/>
<path d="M78.0709 547.64C77.1786 547.75 76.3812 547.08 76.2862 546.14C76.1818 545.21 76.8273 544.37 77.7102 544.26L83.2921 543.6C84.175 543.49 84.9819 544.17 85.0768 545.1C85.1717 546.03 84.5357 546.87 83.6528 546.98L78.0709 547.64Z" fill="#7B009A"/>
<path d="M80.055 559.89C79.5044 560.63 78.4886 560.76 77.7861 560.17C77.0837 559.59 76.9603 558.52 77.5203 557.78L80.9948 553.13C81.5454 552.39 82.5612 552.27 83.2636 552.85C83.9661 553.43 84.0895 554.5 83.5294 555.24L80.055 559.88V559.89Z" fill="#7B009A"/>
<path d="M74.3686 553.52C74.6534 554.42 74.1978 555.38 73.3529 555.68C72.508 555.98 71.5872 555.5 71.3024 554.61L69.5082 549.01C69.2234 548.12 69.679 547.15 70.5239 546.85C71.3688 546.55 72.2896 547.03 72.5744 547.92L74.3686 553.52Z" fill="#7B009A"/>
<path d="M49.0602 568.64C48.2722 568.19 47.9779 567.16 48.3861 566.33C48.8038 565.5 49.7816 565.19 50.5695 565.63L55.5249 568.41C56.3128 568.85 56.6071 569.88 56.1894 570.71C55.7717 571.55 54.794 571.86 54.006 571.42L49.0507 568.64H49.0602Z" fill="#7B009A"/>
<path d="M44.1332 579.93C43.2789 580.21 42.377 579.71 42.1112 578.81C41.8454 577.91 42.3201 576.96 43.1744 576.68L48.538 574.91C49.3924 574.63 50.2942 575.13 50.56 576.03C50.8258 576.92 50.3512 577.88 49.4968 578.16L44.1332 579.92V579.93Z" fill="#7B009A"/>
<path d="M45.5667 567.42C45.3294 568.33 44.4275 568.85 43.5731 568.6C42.7093 568.34 42.2156 567.4 42.4625 566.5L43.9814 560.8C44.2282 559.9 45.1205 559.37 45.9749 559.63C46.8293 559.88 47.3324 560.82 47.0951 561.73L45.5667 567.42Z" fill="#7B009A"/>
<path d="M78.2513 566.38C77.3589 566.48 76.5615 565.81 76.4666 564.88C76.3622 563.94 77.0077 563.11 77.8905 563L83.4725 562.34C84.3648 562.23 85.1622 562.91 85.2572 563.84C85.3521 564.78 84.7161 565.61 83.8332 565.72L78.2513 566.38Z" fill="#7B009A"/>
<path d="M80.2353 578.63C79.6753 579.37 78.669 579.49 77.9665 578.91C77.264 578.33 77.1406 577.26 77.7007 576.52L81.1752 571.87C81.7257 571.13 82.7415 571.01 83.444 571.59C84.1465 572.17 84.2604 573.24 83.7098 573.98L80.2353 578.63Z" fill="#7B009A"/>
<path d="M74.1977 571.92C74.4825 572.81 74.0269 573.77 73.182 574.08C72.3371 574.38 71.4163 573.9 71.1315 573.01L69.3373 567.41C69.0525 566.52 69.5082 565.55 70.353 565.25C71.1979 564.95 72.1187 565.43 72.394 566.32L74.1882 571.92H74.1977Z" fill="#7B009A"/>
<path d="M61.9612 576.49C61.0783 576.6 60.2714 575.92 60.1765 574.99C60.0721 574.06 60.7176 573.22 61.6004 573.11L67.1824 572.45C68.0652 572.34 68.8721 573.02 68.9671 573.95C69.062 574.88 68.426 575.73 67.5431 575.83L61.9612 576.49Z" fill="#7B009A"/>
<path d="M63.9547 588.74C63.4041 589.48 62.3884 589.6 61.6859 589.02C60.9929 588.44 60.8695 587.37 61.4201 586.63L64.8945 581.99C65.4451 581.25 66.4609 581.12 67.1634 581.7C67.8659 582.29 67.9798 583.36 67.4292 584.1L63.9547 588.75V588.74Z" fill="#7B009A"/>
<path d="M55.5819 581.85C55.2971 582.74 54.3857 583.22 53.5314 582.92C52.6865 582.62 52.2308 581.65 52.5156 580.76L54.3003 575.15C54.5851 574.26 55.4964 573.77 56.3508 574.08C57.1957 574.38 57.6514 575.35 57.3666 576.24L55.5819 581.85Z" fill="#7B009A"/>
<path d="M78.9918 591.61C79.7892 591.18 80.7575 591.51 81.1657 592.35C81.5739 593.19 81.2606 594.22 80.4632 594.64L75.4699 597.34C74.6724 597.77 73.7042 597.44 73.2959 596.6C72.8877 595.76 73.201 594.74 73.9984 594.31L78.9918 591.61Z" fill="#7B009A"/>
<path d="M71.8245 583.18C72.0903 582.28 73.0016 581.78 73.8465 582.07C74.7009 582.35 75.1756 583.31 74.9003 584.21L73.2105 589.85C72.9447 590.75 72.0334 591.24 71.1885 590.96C70.3341 590.68 69.8689 589.72 70.1347 588.82L71.8245 583.18Z" fill="#7B009A"/>
<path d="M80.4632 584.74C79.9031 584.01 79.998 582.94 80.6815 582.34C81.3745 581.74 82.3903 581.85 82.9599 582.57L86.5198 587.14C87.0893 587.87 86.9849 588.94 86.3014 589.54C85.6084 590.13 84.5927 590.03 84.0231 589.31L80.4537 584.74H80.4632Z" fill="#7B009A"/>
<path d="M95.0825 576.81C94.1996 576.92 93.3927 576.24 93.2978 575.31C93.1933 574.38 93.8389 573.54 94.7217 573.43L100.304 572.77C101.187 572.66 101.993 573.34 102.088 574.27C102.183 575.21 101.547 576.05 100.664 576.15L95.0825 576.81Z" fill="#7B009A"/>
<path d="M97.076 589.06C96.5254 589.8 95.5097 589.93 94.8072 589.35C94.1047 588.77 93.9908 587.7 94.5414 586.96L98.0158 582.32C98.5664 581.58 99.5822 581.45 100.285 582.03C100.987 582.61 101.111 583.68 100.55 584.43L97.076 589.07V589.06Z" fill="#7B009A"/>
<path d="M91.3897 582.69C91.6745 583.58 91.2188 584.55 90.3739 584.85C89.529 585.15 88.6082 584.67 88.3234 583.78L86.5292 578.17C86.2444 577.28 86.7001 576.31 87.545 576.01C88.3899 575.71 89.3107 576.19 89.5955 577.08L91.3897 582.68V582.69Z" fill="#7B009A"/>
<path d="M68.0273 599.55C67.2393 599.11 66.945 598.07 67.3627 597.24C67.7804 596.41 68.7582 596.1 69.5461 596.54L74.5015 599.32C75.2894 599.76 75.5837 600.79 75.166 601.62C74.7483 602.45 73.7706 602.76 72.9826 602.32L68.0273 599.54V599.55Z" fill="#7B009A"/>
<path d="M61.1543 609.1C60.2999 609.38 59.3981 608.88 59.1323 607.98C58.8665 607.09 59.3411 606.13 60.1955 605.85L65.5591 604.08C66.4134 603.8 67.3153 604.3 67.5906 605.2C67.8564 606.1 67.3817 607.05 66.5274 607.33L61.1733 609.1H61.1543Z" fill="#7B009A"/>
<path d="M59.8822 600.46C59.6354 601.37 58.743 601.9 57.8887 601.64C57.0343 601.39 56.5312 600.44 56.7685 599.54L58.2874 593.85C58.5342 592.94 59.4265 592.41 60.2809 592.67C61.1353 592.93 61.6384 593.87 61.4011 594.77L59.8727 600.46H59.8822Z" fill="#7B009A"/>
<path d="M93.763 599.33C92.8802 599.44 92.0732 598.76 91.9783 597.83C91.8739 596.9 92.5194 596.05 93.4023 595.95L98.9842 595.29C99.867 595.18 100.674 595.86 100.769 596.79C100.873 597.72 100.228 598.57 99.3449 598.67L93.763 599.33Z" fill="#7B009A"/>
<path d="M90.4404 599.5C90.7252 600.39 90.2695 601.36 89.4246 601.66C88.5798 601.96 87.6589 601.48 87.3741 600.59L85.58 594.98C85.2952 594.09 85.7508 593.12 86.5957 592.82C87.4406 592.52 88.3614 593 88.6462 593.89L90.4404 599.49V599.5Z" fill="#7B009A"/>
<path d="M79.4949 606.56C78.6026 606.67 77.8052 605.99 77.7103 605.05C77.6153 604.12 78.2514 603.28 79.1342 603.17L84.7161 602.51C85.6085 602.4 86.4059 603.08 86.5008 604.01C86.6052 604.94 85.9597 605.78 85.0769 605.89L79.4949 606.55V606.56Z" fill="#7B009A"/>
<path d="M82.4567 615.94C81.9061 616.68 80.8904 616.81 80.1879 616.22C79.4854 615.64 79.3715 614.57 79.9126 613.83L83.387 609.19C83.9376 608.45 84.9534 608.33 85.6559 608.91C86.3584 609.49 86.4723 610.56 85.9217 611.3L82.4472 615.95L82.4567 615.94Z" fill="#7B009A"/>
<path d="M71.9764 615.28C71.6916 616.17 70.7803 616.65 69.9259 616.35C69.081 616.05 68.6254 615.08 68.9102 614.19L70.6949 608.58C70.9796 607.69 71.891 607.21 72.7359 607.51C73.5807 607.8 74.0364 608.77 73.7516 609.66L71.9669 615.27L71.9764 615.28Z" fill="#7B009A"/>
<path d="M89.8804 608.08C90.1462 607.18 91.0575 606.69 91.9119 606.97C92.7662 607.25 93.2314 608.21 92.9656 609.1L91.2758 614.74C91.01 615.64 90.0987 616.13 89.2538 615.85C88.3994 615.57 87.9248 614.61 88.2001 613.72L89.8898 608.08H89.8804Z" fill="#7B009A"/>
<path d="M97.9969 614.8C97.4273 614.07 97.5317 613 98.2247 612.4C98.9082 611.8 99.9335 611.91 100.503 612.63L104.072 617.2C104.642 617.93 104.538 619 103.854 619.6C103.161 620.2 102.145 620.09 101.576 619.37L98.0064 614.8H97.9969Z" fill="#7B009A"/>
<path d="M112.626 606.88C111.733 606.99 110.936 606.31 110.841 605.38C110.737 604.45 111.382 603.61 112.265 603.5L117.847 602.84C118.73 602.73 119.527 603.41 119.632 604.34C119.726 605.27 119.09 606.12 118.198 606.22L112.626 606.88Z" fill="#7B009A"/>
<path d="M114.61 619.13C114.059 619.87 113.043 619.99 112.341 619.41C111.638 618.83 111.515 617.76 112.075 617.02L115.55 612.37C116.1 611.63 117.116 611.5 117.818 612.09C118.521 612.67 118.644 613.74 118.084 614.48L114.61 619.13Z" fill="#7B009A"/>
<path d="M108.923 612.76C109.208 613.65 108.752 614.61 107.908 614.92C107.063 615.22 106.142 614.74 105.857 613.85L104.063 608.24C103.778 607.35 104.234 606.39 105.079 606.08C105.924 605.78 106.844 606.26 107.129 607.14L108.923 612.75V612.76Z" fill="#7B009A"/>
<path d="M83.6149 627.88C82.827 627.44 82.5232 626.41 82.9504 625.57C83.3681 624.74 84.3459 624.43 85.1338 624.87L90.0892 627.65C90.8771 628.09 91.1809 629.12 90.7537 629.95C90.336 630.78 89.3582 631.1 88.5608 630.66L83.6055 627.88H83.6149Z" fill="#7B009A"/>
<path d="M77.416 630.52C77.1691 631.43 76.2768 631.95 75.4224 631.7C74.568 631.44 74.0649 630.5 74.3022 629.6L75.8306 623.91C76.0679 623 76.9698 622.48 77.8241 622.73C78.688 622.99 79.1817 623.93 78.9443 624.83L77.416 630.52Z" fill="#7B009A"/>
<path d="M113.319 626.51C112.436 626.61 111.629 625.94 111.534 625.01C111.429 624.08 112.075 623.23 112.958 623.13L118.54 622.47C119.423 622.36 120.23 623.04 120.324 623.97C120.419 624.91 119.783 625.75 118.901 625.85L113.319 626.51Z" fill="#7B009A"/>
<path d="M107.974 629.56C108.259 630.45 107.803 631.42 106.958 631.72C106.113 632.02 105.193 631.54 104.908 630.66L103.114 625.05C102.829 624.16 103.284 623.2 104.129 622.89C104.974 622.59 105.895 623.07 106.18 623.96L107.974 629.56Z" fill="#7B009A"/>
<path d="M13.072 549.36C12.5119 550.1 11.4961 550.22 10.8031 549.64C10.1006 549.06 9.97722 547.99 10.5373 547.25L14.0118 542.61C14.5624 541.87 15.5781 541.75 16.2806 542.32C16.9831 542.91 17.097 543.97 16.5464 544.71L13.072 549.36Z" fill="#7B009A"/>
<path d="M11.2397 555.82C10.3474 555.93 9.54999 555.25 9.45506 554.32C9.36013 553.39 9.99617 552.54 10.879 552.44L16.4609 551.78C17.3438 551.67 18.1507 552.35 18.2456 553.29C18.3406 554.22 17.7045 555.06 16.8217 555.17L11.2397 555.83V555.82Z" fill="#7B009A"/>
<path d="M13.2238 568.07C12.6733 568.81 11.648 568.94 10.955 568.35C10.2525 567.77 10.1386 566.7 10.6892 565.96L14.1637 561.32C14.7142 560.58 15.73 560.45 16.4325 561.03C17.135 561.61 17.2584 562.68 16.6983 563.43L13.2238 568.07Z" fill="#7B009A"/>
<path d="M13.4612 574.18C12.8916 573.45 12.996 572.38 13.6795 571.78C14.3725 571.18 15.3882 571.28 15.9578 572.01L19.5272 576.58C20.0968 577.31 19.9924 578.38 19.2994 578.98C18.6064 579.57 17.5906 579.47 17.0211 578.74L13.4517 574.17L13.4612 574.18Z" fill="#7B009A"/>
<path d="M28.0805 566.26C27.1977 566.37 26.3907 565.7 26.2958 564.76C26.1914 563.83 26.8369 562.98 27.7198 562.88L33.3017 562.22C34.194 562.12 34.9915 562.79 35.0864 563.72C35.1813 564.65 34.5453 565.5 33.6624 565.6L28.0805 566.26Z" fill="#7B009A"/>
<path d="M30.0646 578.51C29.514 579.25 28.4982 579.37 27.7957 578.79C27.0932 578.21 26.9698 577.14 27.5299 576.4L31.0044 571.76C31.555 571.02 32.5707 570.89 33.2732 571.47C33.9757 572.06 34.0896 573.13 33.539 573.87L30.0646 578.52V578.51Z" fill="#7B009A"/>
<path d="M24.3782 572.14C24.663 573.03 24.2073 574 23.3624 574.3C22.5176 574.6 21.5967 574.12 21.3119 573.23L19.5178 567.63C19.233 566.74 19.6886 565.77 20.5335 565.47C21.3784 565.17 22.2992 565.65 22.584 566.53L24.3782 572.14Z" fill="#7B009A"/>
<path d="M28.2609 585C27.378 585.11 26.5711 584.44 26.4762 583.5C26.3812 582.57 27.0173 581.72 27.9001 581.62L33.4821 580.96C34.3649 580.86 35.1718 581.53 35.2667 582.46C35.3712 583.39 34.7256 584.24 33.8428 584.34L28.2609 585Z" fill="#7B009A"/>
<path d="M30.2449 597.25C29.6943 597.99 28.6691 598.12 27.9761 597.53C27.2736 596.95 27.1502 595.88 27.7103 595.14L31.1847 590.49C31.7448 589.75 32.7511 589.63 33.4536 590.21C34.1561 590.79 34.2795 591.86 33.7194 592.6L30.2449 597.25Z" fill="#7B009A"/>
<path d="M22.9163 588.05C23.2011 588.94 22.7454 589.91 21.9005 590.21C21.0557 590.51 20.1348 590.03 19.85 589.14L18.0558 583.53C17.7711 582.64 18.2267 581.67 19.0716 581.37C19.9165 581.07 20.8373 581.55 21.1221 582.44L22.9163 588.05Z" fill="#7B009A"/>
<path d="M11.9708 595.11C11.0879 595.22 10.281 594.54 10.1861 593.61C10.0911 592.67 10.7272 591.83 11.61 591.73L17.192 591.07C18.0843 590.96 18.8817 591.64 18.9767 592.57C19.0811 593.5 18.4356 594.35 17.5527 594.45L11.9708 595.11Z" fill="#7B009A"/>
<path d="M13.9643 607.36C13.4137 608.1 12.3979 608.22 11.6955 607.64C10.993 607.06 10.8695 605.99 11.4296 605.25L14.9041 600.61C15.4547 599.87 16.4705 599.75 17.1729 600.33C17.8754 600.91 17.9988 601.98 17.4387 602.73L13.9643 607.37V607.36Z" fill="#7B009A"/>
<path d="M29.0013 610.23C29.7987 609.8 30.767 610.13 31.1752 610.97C31.5834 611.81 31.2701 612.83 30.4727 613.26L25.4794 615.96C24.682 616.39 23.7042 616.06 23.3055 615.22C22.8973 614.39 23.2105 613.36 24.0079 612.93L29.0013 610.22V610.23Z" fill="#7B009A"/>
<path d="M23.0207 599.52C23.2865 598.62 24.1978 598.12 25.0427 598.4C25.8971 598.68 26.3622 599.64 26.0964 600.54L24.4067 606.18C24.1409 607.07 23.2295 607.57 22.3846 607.29C21.5303 607.01 21.0556 606.05 21.3214 605.15L23.0112 599.51L23.0207 599.52Z" fill="#7B009A"/>
<path d="M30.4728 603.36C29.9032 602.63 30.0076 601.56 30.6911 600.97C31.3841 600.37 32.3998 600.48 32.9694 601.2L36.5388 605.77C37.1084 606.5 37.004 607.57 36.3205 608.17C35.6275 608.77 34.6117 608.66 34.0421 607.93L30.4728 603.36Z" fill="#7B009A"/>
<path d="M45.092 595.43C44.2092 595.54 43.4023 594.87 43.3073 593.93C43.2029 593 43.8485 592.16 44.7313 592.05L50.3132 591.39C51.1961 591.29 52.003 591.96 52.0979 592.89C52.2024 593.82 51.5663 594.67 50.674 594.77L45.092 595.43Z" fill="#7B009A"/>
<path d="M47.0856 607.69C46.535 608.43 45.5193 608.55 44.8168 607.97C44.1143 607.39 43.9909 606.32 44.551 605.58L48.0254 600.94C48.576 600.2 49.5918 600.07 50.2943 600.66C50.9968 601.24 51.1107 602.31 50.5601 603.05L47.0856 607.69Z" fill="#7B009A"/>
<path d="M41.3993 601.32C41.684 602.21 41.2284 603.18 40.3835 603.48C39.5386 603.78 38.6273 603.3 38.333 602.41L36.5388 596.8C36.254 595.91 36.7097 594.95 37.5546 594.64C38.3994 594.34 39.3203 594.82 39.6051 595.71L41.3993 601.31V601.32Z" fill="#7B009A"/>
<path d="M16.0908 616.43C15.3028 615.99 14.9991 614.96 15.4168 614.12C15.8345 613.29 16.8122 612.98 17.6002 613.42L22.565 616.19C23.353 616.63 23.6472 617.67 23.2295 618.5C22.8119 619.33 21.8341 619.64 21.0461 619.21L16.0908 616.43Z" fill="#7B009A"/>
<path d="M11.1639 627.72C10.3095 628 9.39817 627.5 9.14185 626.6C8.87605 625.7 9.3507 624.75 10.2051 624.46L15.5686 622.7C16.423 622.42 17.3249 622.92 17.5907 623.82C17.8565 624.72 17.3818 625.67 16.5274 625.95L11.1639 627.71V627.72Z" fill="#7B009A"/>
<path d="M45.7945 615.06C44.9117 615.17 44.1047 614.49 44.0098 613.56C43.9149 612.63 44.5509 611.78 45.4338 611.68L51.0157 611.02C51.8985 610.91 52.7054 611.58 52.8004 612.52C52.9048 613.46 52.2593 614.3 51.3764 614.4L45.7945 615.06Z" fill="#7B009A"/>
<path d="M47.7786 627.32C47.228 628.06 46.2027 628.18 45.5002 627.6C44.7977 627.02 44.6838 625.95 45.2344 625.21L48.7089 620.57C49.2595 619.83 50.2752 619.7 50.9777 620.28C51.6802 620.86 51.8036 621.93 51.2435 622.67L47.7691 627.32H47.7786Z" fill="#7B009A"/>
<path d="M40.4499 618.12C40.7347 619.01 40.279 619.98 39.4342 620.28C38.5893 620.58 37.6685 620.1 37.3837 619.21L35.5895 613.6C35.3047 612.71 35.7603 611.75 36.6052 611.44C37.4501 611.14 38.3709 611.62 38.6557 612.51L40.4499 618.11V618.12Z" fill="#7B009A"/>
<path d="M29.5044 625.17C28.6215 625.28 27.8146 624.6 27.7197 623.67C27.6153 622.74 28.2608 621.9 29.1437 621.79L34.7256 621.13C35.6084 621.03 36.4154 621.7 36.5103 622.63C36.6147 623.56 35.9692 624.41 35.0863 624.51L29.5044 625.17Z" fill="#7B009A"/>
<path d="M21.9859 633.9C21.7011 634.79 20.7898 635.27 19.9354 634.97C19.0905 634.67 18.6349 633.7 18.9197 632.81L20.7044 627.2C20.9892 626.31 21.91 625.83 22.7549 626.13C23.5997 626.43 24.0554 627.4 23.7706 628.29L21.9859 633.9Z" fill="#7B009A"/>
<path d="M62.6352 625.5C61.7428 625.61 60.9454 624.93 60.8505 624C60.7461 623.07 61.3916 622.23 62.2745 622.12L67.8564 621.46C68.7487 621.35 69.5461 622.03 69.6411 622.96C69.736 623.89 69.1 624.74 68.2171 624.84L62.6352 625.5Z" fill="#7B009A"/>
<path d="M58.9329 631.38C59.2177 632.27 58.762 633.24 57.9171 633.54C57.0722 633.84 56.1514 633.36 55.8666 632.48L54.0724 626.87C53.7877 625.98 54.2433 625.01 55.0882 624.71C55.9331 624.41 56.8539 624.89 57.1387 625.78L58.9329 631.38Z" fill="#7B009A"/>
</g>
<path d="M802.762 75.1235L786.776 82.0835C781.839 69.5035 768.112 63.4936 756.17 68.6936C744.228 73.8936 738.522 88.3535 743.459 100.934L727.473 107.894C718.891 86.0335 728.802 60.8935 749.563 51.8535C770.324 42.8235 794.18 53.2535 802.762 75.1235Z" fill="#7B009A"/>
<path d="M796.05 71.5236L780.064 78.4836C775.128 65.9036 761.401 59.8936 749.458 65.0936C737.516 70.2936 731.811 84.7536 736.747 97.3336L720.761 104.294C712.189 82.4336 722.09 57.2936 742.851 48.2536C763.603 39.2136 787.469 49.6636 796.05 71.5236Z" fill="#197799"/>
<path d="M796.05 71.5236L780.064 78.4836C775.128 65.9036 761.401 59.8936 749.458 65.0936C737.516 70.2936 731.811 84.7536 736.747 97.3336L720.761 104.294C712.189 82.4336 722.09 57.2936 742.851 48.2536C763.603 39.2136 787.469 49.6636 796.05 71.5236Z" fill="black" fill-opacity="0.2"/>
<path d="M1047.54 544.381C1059.48 527.331 1082.28 523.711 1098.46 536.291C1114.64 548.871 1118.08 572.891 1106.14 589.941C1094.2 606.991 1071.39 610.611 1055.21 598.031C1039.02 585.451 1035.59 561.431 1047.53 544.381H1047.54Z" fill="#D9BA38"/>
<path d="M1089.34 509.251C1109.31 524.771 1113.56 554.501 1098.84 575.531C1084.1 596.561 1055.88 601.041 1035.92 585.521C1015.95 570.001 1011.7 540.271 1026.42 519.241C1041.16 498.211 1069.38 493.721 1089.34 509.241V509.251ZM1038.17 582.311C1056.44 596.521 1082.29 592.411 1095.78 573.161C1109.27 553.901 1105.37 526.681 1087.09 512.471C1068.81 498.261 1042.97 502.371 1029.48 521.621C1015.99 540.871 1019.89 568.101 1038.17 582.301V582.311Z" fill="#197799"/>
<path d="M1089.34 509.251C1109.31 524.771 1113.56 554.501 1098.84 575.531C1084.1 596.561 1055.88 601.041 1035.92 585.521C1015.95 570.001 1011.7 540.271 1026.42 519.241C1041.16 498.211 1069.38 493.721 1089.34 509.241V509.251ZM1038.17 582.311C1056.44 596.521 1082.29 592.411 1095.78 573.161C1109.27 553.901 1105.37 526.681 1087.09 512.471C1068.81 498.261 1042.97 502.371 1029.48 521.621C1015.99 540.871 1019.89 568.101 1038.17 582.301V582.311Z" fill="black" fill-opacity="0.2"/>
<path d="M1242.48 37.13L1235.05 23.56L1242.48 10H1257.35L1264.78 23.56L1257.35 37.13H1242.48Z" fill="#199991"/>
<path d="M1242.48 37.13L1235.05 23.56L1242.48 10H1257.35L1264.78 23.56L1257.35 37.13H1242.48Z" fill="black" fill-opacity="0.2"/>
</g>
<path d="M1116.43 191.575C1114.61 190.392 1114.19 188.096 1115.5 186.434C1116.8 184.786 1119.32 184.392 1121.15 185.589C1122.97 186.772 1123.39 189.082 1122.08 190.73C1120.78 192.378 1118.24 192.758 1116.43 191.575Z" fill="#F9F8F7"/>
<path d="M1095.37 218.252C1093.56 217.069 1093.14 214.759 1094.44 213.111C1095.74 211.463 1098.29 211.083 1100.1 212.266C1101.91 213.449 1102.35 215.759 1101.03 217.407C1099.73 219.055 1097.19 219.435 1095.37 218.252Z" fill="#F9F8F7"/>
<path d="M1105.91 204.913C1104.09 203.73 1103.67 201.42 1104.98 199.772C1106.29 198.11 1108.83 197.73 1110.64 198.927C1112.46 200.11 1112.88 202.42 1111.57 204.068C1110.27 205.716 1107.74 206.096 1105.91 204.913Z" fill="#F9F8F7"/>
<path d="M1084.86 231.59C1083.05 230.407 1082.63 228.097 1083.93 226.449C1085.23 224.801 1087.78 224.421 1089.59 225.604C1091.4 226.787 1091.82 229.083 1090.52 230.745C1089.22 232.393 1086.69 232.773 1084.86 231.59Z" fill="#F9F8F7"/>
<path d="M1063.81 258.253C1061.99 257.07 1061.58 254.774 1062.88 253.112C1064.18 251.464 1066.71 251.069 1068.54 252.267C1070.35 253.45 1070.77 255.76 1069.47 257.408C1068.16 259.07 1065.62 259.436 1063.81 258.253Z" fill="#F9F8F7"/>
<path d="M1074.33 244.928C1072.51 243.745 1072.1 241.435 1073.4 239.787C1074.71 238.139 1077.25 237.759 1079.06 238.942C1080.88 240.125 1081.31 242.435 1079.99 244.083C1078.69 245.745 1076.15 246.126 1074.33 244.928Z" fill="#F9F8F7"/>
<path d="M1179.58 111.559C1177.77 110.376 1177.34 108.066 1178.65 106.418C1179.96 104.77 1182.48 104.39 1184.31 105.573C1186.13 106.756 1186.54 109.066 1185.24 110.714C1183.94 112.362 1181.4 112.756 1179.58 111.559Z" fill="#F9F8F7"/>
<path d="M1158.53 138.236C1156.7 137.053 1156.28 134.743 1157.6 133.095C1158.9 131.447 1161.45 131.067 1163.26 132.25C1165.07 133.433 1165.49 135.729 1164.19 137.391C1162.89 139.039 1160.34 139.419 1158.53 138.236Z" fill="#F9F8F7"/>
<path d="M1169.06 124.897C1167.24 123.714 1166.83 121.419 1168.13 119.757C1169.43 118.095 1171.97 117.714 1173.79 118.911C1175.6 120.095 1176.03 122.404 1174.72 124.052C1173.41 125.7 1170.87 126.081 1169.04 124.897H1169.06Z" fill="#F9F8F7"/>
<path d="M1148 151.574C1146.19 150.391 1145.77 148.081 1147.07 146.433C1148.38 144.771 1150.92 144.391 1152.73 145.588C1154.55 146.771 1154.98 149.081 1153.66 150.729C1152.36 152.377 1149.83 152.757 1148 151.574Z" fill="#F9F8F7"/>
<path d="M1126.95 178.237C1125.14 177.054 1124.72 174.758 1126.02 173.096C1127.32 171.448 1129.87 171.053 1131.68 172.251C1133.49 173.434 1133.91 175.744 1132.61 177.392C1131.31 179.039 1128.78 179.42 1126.95 178.237Z" fill="#F9F8F7"/>
<path d="M1137.48 164.912C1135.66 163.729 1135.25 161.419 1136.55 159.771C1137.85 158.124 1140.39 157.743 1142.21 158.926C1144.02 160.109 1144.45 162.405 1143.14 164.067C1141.83 165.715 1139.29 166.096 1137.48 164.912Z" fill="#F9F8F7"/>
<path d="M1101.74 182.012C1099.93 180.828 1099.51 178.519 1100.81 176.871C1102.12 175.223 1104.66 174.842 1106.47 176.025C1108.3 177.209 1108.72 179.519 1107.4 181.166C1106.1 182.829 1103.56 183.209 1101.74 182.012Z" fill="#F9F8F7"/>
<path d="M1080.69 208.688C1078.88 207.505 1078.46 205.195 1079.76 203.547C1081.06 201.899 1083.61 201.519 1085.42 202.702C1087.23 203.885 1087.67 206.195 1086.35 207.843C1085.05 209.491 1082.5 209.885 1080.69 208.688Z" fill="#F9F8F7"/>
<path d="M1091.23 195.35C1089.42 194.167 1089 191.857 1090.3 190.209C1091.6 188.561 1094.15 188.181 1095.96 189.364C1097.77 190.547 1098.19 192.843 1096.89 194.505C1095.59 196.153 1093.05 196.547 1091.23 195.35Z" fill="#F9F8F7"/>
<path d="M1070.18 222.027C1068.35 220.843 1067.95 218.534 1069.25 216.886C1070.55 215.238 1073.08 214.857 1074.91 216.041C1076.72 217.224 1077.16 219.519 1075.84 221.181C1074.54 222.829 1071.99 223.21 1070.18 222.027Z" fill="#F9F8F7"/>
<path d="M1049.13 248.703C1047.31 247.52 1046.89 245.21 1048.2 243.562C1049.5 241.914 1052.04 241.534 1053.86 242.717C1055.67 243.9 1056.09 246.21 1054.79 247.858C1053.48 249.506 1050.94 249.886 1049.13 248.703Z" fill="#F9F8F7"/>
<path d="M1059.65 235.365C1057.84 234.182 1057.42 231.872 1058.72 230.224C1060.03 228.576 1062.55 228.196 1064.38 229.379C1066.2 230.562 1066.61 232.858 1065.31 234.52C1064.01 236.168 1061.47 236.562 1059.65 235.365Z" fill="#F9F8F7"/>
<path d="M1164.9 101.996C1163.09 100.813 1162.65 98.5167 1163.97 96.8547C1165.27 95.2068 1167.82 94.8124 1169.63 96.0096C1171.46 97.1928 1171.86 99.5027 1170.56 101.151C1169.26 102.799 1166.72 103.179 1164.9 101.996Z" fill="#F9F8F7"/>
<path d="M1143.85 128.672C1142.03 127.489 1141.62 125.193 1142.92 123.531C1144.22 121.883 1146.76 121.503 1148.58 122.686C1150.39 123.869 1150.82 126.179 1149.51 127.827C1148.2 129.475 1145.66 129.855 1143.85 128.672Z" fill="#F9F8F7"/>
<path d="M1154.38 115.334C1152.56 114.151 1152.14 111.855 1153.44 110.193C1154.75 108.531 1157.29 108.151 1159.1 109.348C1160.92 110.531 1161.35 112.841 1160.03 114.489C1158.73 116.137 1156.19 116.531 1154.38 115.334Z" fill="#F9F8F7"/>
<path d="M1133.32 142.011C1131.49 140.828 1131.07 138.518 1132.39 136.87C1133.69 135.222 1136.24 134.842 1138.05 136.025C1139.86 137.208 1140.28 139.518 1138.98 141.166C1137.68 142.814 1135.15 143.194 1133.32 142.011Z" fill="#F9F8F7"/>
<path d="M1112.27 168.687C1110.44 167.504 1110.02 165.194 1111.34 163.546C1112.64 161.898 1115.18 161.518 1117 162.701C1118.81 163.884 1119.23 166.194 1117.93 167.842C1116.63 169.49 1114.08 169.87 1112.27 168.687Z" fill="#F9F8F7"/>
<path d="M1122.8 155.349C1120.97 154.166 1120.55 151.856 1121.87 150.208C1123.17 148.56 1125.7 148.18 1127.52 149.363C1129.34 150.546 1129.76 152.842 1128.45 154.504C1127.15 156.166 1124.61 156.546 1122.8 155.349Z" fill="#F9F8F7"/>
<path d="M1087.08 172.448C1085.26 171.265 1084.85 168.955 1086.15 167.307C1087.45 165.659 1089.99 165.279 1091.81 166.462C1093.62 167.645 1094.05 169.955 1092.74 171.603C1091.43 173.251 1088.89 173.631 1087.08 172.448Z" fill="#F9F8F7"/>
<path d="M1066.03 199.125C1064.2 197.942 1063.78 195.646 1065.1 193.984C1066.4 192.336 1068.94 191.956 1070.75 193.139C1072.57 194.322 1073 196.632 1071.68 198.28C1070.38 199.928 1067.84 200.308 1066.03 199.125Z" fill="#F9F8F7"/>
<path d="M1076.55 185.786C1074.74 184.603 1074.32 182.293 1075.62 180.645C1076.92 178.983 1079.47 178.617 1081.28 179.8C1083.09 180.983 1083.51 183.293 1082.21 184.941C1080.91 186.589 1078.38 186.97 1076.55 185.786Z" fill="#F9F8F7"/>
<path d="M1055.5 212.463C1053.69 211.28 1053.27 208.97 1054.57 207.322C1055.87 205.674 1058.4 205.294 1060.23 206.477C1062.06 207.66 1062.46 209.97 1061.16 211.618C1059.86 213.266 1057.31 213.646 1055.5 212.463Z" fill="#F9F8F7"/>
<path d="M1034.45 239.14C1032.63 237.957 1032.21 235.647 1033.52 233.999C1034.82 232.351 1037.36 231.956 1039.17 233.154C1040.99 234.337 1041.41 236.647 1040.1 238.295C1038.8 239.943 1036.26 240.323 1034.45 239.14Z" fill="#F9F8F7"/>
<path d="M1044.97 225.801C1043.16 224.618 1042.74 222.308 1044.04 220.66C1045.34 219.012 1047.89 218.632 1049.7 219.815C1051.53 220.998 1051.93 223.308 1050.63 224.956C1049.33 226.604 1046.79 226.984 1044.97 225.801Z" fill="#F9F8F7"/>
<path d="M1150.22 92.432C1148.39 91.2489 1147.97 88.939 1149.29 87.291C1150.59 85.629 1153.14 85.2629 1154.95 86.446C1156.76 87.6291 1157.2 89.939 1155.88 91.5869C1154.58 93.2349 1152.04 93.6152 1150.22 92.432Z" fill="#F9F8F7"/>
<path d="M1129.17 119.109C1127.35 117.925 1126.94 115.616 1128.24 113.968C1129.54 112.32 1132.08 111.939 1133.9 113.123C1135.71 114.306 1136.14 116.616 1134.83 118.264C1133.53 119.911 1131 120.306 1129.17 119.109Z" fill="#F9F8F7"/>
<path d="M1139.7 105.77C1137.88 104.587 1137.46 102.277 1138.77 100.629C1140.07 98.9814 1142.61 98.6012 1144.42 99.7843C1146.24 100.967 1146.67 103.277 1145.35 104.925C1144.05 106.573 1141.51 106.968 1139.7 105.77Z" fill="#F9F8F7"/>
<path d="M1118.64 132.447C1116.83 131.264 1116.41 128.954 1117.71 127.306C1119.01 125.658 1121.56 125.278 1123.37 126.461C1125.18 127.644 1125.62 129.954 1124.3 131.602C1123 133.25 1120.46 133.644 1118.64 132.447Z" fill="#F9F8F7"/>
<path d="M1097.6 159.11C1095.79 157.926 1095.36 155.631 1096.67 153.969C1097.98 152.307 1100.52 151.94 1102.33 153.123C1104.16 154.307 1104.57 156.617 1103.26 158.264C1101.96 159.912 1099.42 160.293 1097.6 159.11Z" fill="#F9F8F7"/>
<path d="M1108.12 145.785C1106.3 144.602 1105.88 142.292 1107.19 140.644C1108.49 138.996 1111.01 138.616 1112.84 139.799C1114.66 140.982 1115.08 143.292 1113.77 144.94C1112.47 146.588 1109.93 146.982 1108.12 145.785Z" fill="#F9F8F7"/>
<path d="M1072.4 162.899C1070.58 161.716 1070.16 159.406 1071.47 157.758C1072.77 156.11 1075.31 155.729 1077.13 156.913C1078.94 158.096 1079.37 160.392 1078.06 162.054C1076.75 163.701 1074.21 164.082 1072.4 162.899Z" fill="#F9F8F7"/>
<path d="M1051.34 189.561C1049.53 188.378 1049.11 186.068 1050.41 184.42C1051.72 182.772 1054.24 182.392 1056.07 183.575C1057.9 184.758 1058.32 187.068 1057 188.716C1055.7 190.364 1053.16 190.744 1051.34 189.561Z" fill="#F9F8F7"/>
<path d="M1061.87 176.223C1060.06 175.04 1059.64 172.73 1060.94 171.082C1062.24 169.434 1064.79 169.054 1066.6 170.237C1068.41 171.42 1068.85 173.73 1067.53 175.378C1066.23 177.04 1063.68 177.406 1061.87 176.223Z" fill="#F9F8F7"/>
<path d="M1040.82 202.899C1039 201.716 1038.59 199.406 1039.89 197.759C1041.19 196.111 1043.73 195.73 1045.55 196.913C1047.36 198.097 1047.78 200.406 1046.48 202.054C1045.17 203.716 1042.63 204.097 1040.82 202.899Z" fill="#F9F8F7"/>
<path d="M1019.76 229.576C1017.95 228.393 1017.53 226.083 1018.83 224.435C1020.14 222.787 1022.68 222.407 1024.49 223.59C1026.31 224.773 1026.74 227.069 1025.42 228.731C1024.12 230.379 1021.58 230.759 1019.76 229.576Z" fill="#F9F8F7"/>
<path d="M1030.29 216.238C1028.48 215.055 1028.06 212.745 1029.36 211.097C1030.66 209.449 1033.21 209.069 1035.02 210.252C1036.83 211.435 1037.25 213.731 1035.95 215.393C1034.65 217.041 1032.11 217.421 1030.29 216.238Z" fill="#F9F8F7"/>
<path d="M1135.54 82.8684C1133.73 81.6852 1133.29 79.3753 1134.61 77.7274C1135.91 76.0795 1138.45 75.6851 1140.27 76.8823C1142.1 78.0654 1142.52 80.3753 1141.2 82.0233C1139.9 83.6712 1137.35 84.0515 1135.54 82.8684Z" fill="#F9F8F7"/>
<path d="M1114.49 109.545C1112.67 108.362 1112.25 106.066 1113.56 104.404C1114.86 102.756 1117.4 102.376 1119.22 103.559C1121.03 104.742 1121.46 107.052 1120.15 108.7C1118.84 110.348 1116.32 110.728 1114.49 109.545Z" fill="#F9F8F7"/>
<path d="M1125.01 96.2066C1123.18 95.0235 1122.77 92.7136 1124.08 91.0657C1125.39 89.4177 1127.93 89.0374 1129.74 90.2206C1131.56 91.4037 1131.99 93.7136 1130.67 95.3615C1129.37 97.0094 1126.84 97.3897 1125.01 96.2066Z" fill="#F9F8F7"/>
<path d="M1103.96 122.883C1102.15 121.7 1101.71 119.404 1103.03 117.742C1104.33 116.094 1106.86 115.714 1108.69 116.897C1110.5 118.08 1110.92 120.39 1109.62 122.038C1108.32 123.686 1105.79 124.066 1103.96 122.883Z" fill="#F9F8F7"/>
<path d="M1082.92 149.56C1081.11 148.377 1080.69 146.081 1081.99 144.419C1083.3 142.771 1085.84 142.391 1087.65 143.574C1089.47 144.757 1089.88 147.067 1088.58 148.715C1087.28 150.363 1084.74 150.743 1082.92 149.56Z" fill="#F9F8F7"/>
<path d="M1093.45 136.222C1091.62 135.039 1091.22 132.743 1092.52 131.081C1093.82 129.433 1096.36 129.039 1098.18 130.236C1099.99 131.419 1100.41 133.729 1099.11 135.377C1097.81 137.025 1095.26 137.405 1093.45 136.222Z" fill="#F9F8F7"/>
<path d="M1057.71 153.335C1055.9 152.152 1055.48 149.842 1056.78 148.194C1058.09 146.546 1060.63 146.166 1062.44 147.349C1064.26 148.532 1064.69 150.842 1063.37 152.49C1062.07 154.138 1059.53 154.532 1057.71 153.335Z" fill="#F9F8F7"/>
<path d="M1036.66 179.998C1034.85 178.814 1034.43 176.504 1035.73 174.857C1037.03 173.209 1039.58 172.828 1041.39 174.011C1043.2 175.195 1043.62 177.504 1042.32 179.152C1041.02 180.8 1038.48 181.195 1036.66 179.998Z" fill="#F9F8F7"/>
<path d="M1047.19 166.673C1045.37 165.49 1044.96 163.18 1046.26 161.532C1047.56 159.884 1050.09 159.504 1051.92 160.687C1053.73 161.87 1054.15 164.18 1052.85 165.828C1051.54 167.476 1049 167.871 1047.19 166.673Z" fill="#F9F8F7"/>
<path d="M1026.13 193.336C1024.32 192.153 1023.9 189.843 1025.2 188.195C1026.51 186.547 1029.05 186.167 1030.86 187.35C1032.68 188.533 1033.1 190.843 1031.79 192.491C1030.49 194.139 1027.95 194.519 1026.13 193.336Z" fill="#F9F8F7"/>
<path d="M1005.08 220.013C1003.27 218.83 1002.85 216.534 1004.15 214.872C1005.45 213.224 1008 212.843 1009.81 214.027C1011.62 215.21 1012.04 217.52 1010.74 219.168C1009.44 220.815 1006.9 221.196 1005.08 220.013Z" fill="#F9F8F7"/>
<path d="M1015.61 206.674C1013.79 205.491 1013.38 203.181 1014.68 201.533C1015.98 199.885 1018.52 199.505 1020.34 200.688C1022.17 201.871 1022.57 204.181 1021.27 205.829C1019.96 207.477 1017.42 207.857 1015.61 206.674Z" fill="#F9F8F7"/>
<path d="M1120.86 73.3188C1119.03 72.1357 1118.61 69.8258 1119.93 68.1778C1121.23 66.5299 1123.77 66.1496 1125.59 67.3327C1127.4 68.5159 1127.82 70.8258 1126.52 72.4737C1125.21 74.1216 1122.69 74.516 1120.86 73.3188Z" fill="#F9F8F7"/>
<path d="M1099.8 99.9813C1097.99 98.7981 1097.57 96.4882 1098.87 94.8403C1100.18 93.1924 1102.7 92.8121 1104.53 93.9952C1106.35 95.1783 1106.77 97.4882 1105.46 99.1362C1104.16 100.798 1101.62 101.178 1099.8 99.9813Z" fill="#F9F8F7"/>
<path d="M1110.33 86.643C1108.52 85.4599 1108.1 83.15 1109.4 81.5021C1110.7 79.8541 1113.25 79.4738 1115.06 80.657C1116.87 81.8401 1117.31 84.1359 1115.99 85.7979C1114.69 87.4458 1112.14 87.8261 1110.33 86.643Z" fill="#F9F8F7"/>
<path d="M1089.29 113.32C1087.46 112.137 1087.05 109.827 1088.36 108.179C1089.67 106.531 1092.21 106.151 1094.02 107.334C1095.84 108.517 1096.25 110.827 1094.95 112.475C1093.65 114.123 1091.11 114.503 1089.29 113.32Z" fill="#F9F8F7"/>
<path d="M1068.24 139.997C1066.43 138.814 1066.01 136.504 1067.31 134.856C1068.61 133.208 1071.16 132.827 1072.97 134.011C1074.8 135.194 1075.22 137.504 1073.9 139.152C1072.6 140.799 1070.05 141.18 1068.24 139.997Z" fill="#F9F8F7"/>
<path d="M1078.77 126.658C1076.94 125.475 1076.53 123.165 1077.84 121.517C1079.14 119.869 1081.68 119.489 1083.5 120.672C1085.32 121.855 1085.74 124.165 1084.43 125.813C1083.12 127.461 1080.58 127.855 1078.77 126.658Z" fill="#F9F8F7"/>
<path d="M1043.03 143.771C1041.22 142.588 1040.8 140.292 1042.1 138.63C1043.41 136.982 1045.95 136.588 1047.76 137.785C1049.58 138.968 1050.01 141.278 1048.69 142.926C1047.39 144.574 1044.85 144.954 1043.03 143.771Z" fill="#F9F8F7"/>
<path d="M1021.98 170.448C1020.17 169.265 1019.75 166.955 1021.05 165.307C1022.35 163.659 1024.89 163.279 1026.71 164.462C1028.52 165.645 1028.94 167.941 1027.64 169.603C1026.34 171.251 1023.79 171.645 1021.98 170.448Z" fill="#F9F8F7"/>
<path d="M1032.51 157.109C1030.69 155.926 1030.27 153.616 1031.58 151.969C1032.88 150.321 1035.42 149.926 1037.24 151.123C1039.05 152.307 1039.47 154.602 1038.17 156.264C1036.86 157.912 1034.32 158.293 1032.51 157.109Z" fill="#F9F8F7"/>
<path d="M1011.45 183.772C1009.64 182.589 1009.22 180.279 1010.52 178.631C1011.83 176.983 1014.37 176.603 1016.18 177.786C1018 178.969 1018.41 181.279 1017.11 182.927C1015.81 184.589 1013.27 184.955 1011.45 183.772Z" fill="#F9F8F7"/>
<path d="M990.416 210.449C988.587 209.265 988.184 206.956 989.486 205.308C990.788 203.66 993.331 203.279 995.145 204.462C996.959 205.646 997.393 207.956 996.075 209.603C994.773 211.265 992.23 211.646 990.416 210.449Z" fill="#F9F8F7"/>
<path d="M1000.94 197.11C999.113 195.927 998.695 193.617 1000.01 191.969C1001.31 190.321 1003.86 189.941 1005.67 191.124C1007.48 192.307 1007.9 194.617 1006.6 196.265C1005.3 197.913 1002.76 198.308 1000.94 197.11Z" fill="#F9F8F7"/>
<path d="M1106.18 63.7552C1104.36 62.5721 1103.94 60.2763 1105.25 58.6142C1106.55 56.9663 1109.09 56.586 1110.9 57.7691C1112.72 58.9523 1113.15 61.2622 1111.83 62.9101C1110.53 64.558 1107.99 64.9383 1106.18 63.7552Z" fill="#F9F8F7"/>
<path d="M1085.14 90.4178C1083.31 89.2347 1082.91 86.9248 1084.21 85.2768C1085.51 83.6289 1088.04 83.2486 1089.87 84.4317C1091.68 85.6149 1092.1 87.9248 1090.8 89.5727C1089.5 91.2207 1086.95 91.6009 1085.14 90.4178Z" fill="#F9F8F7"/>
<path d="M1095.67 77.0795C1093.85 75.8964 1093.42 73.5865 1094.74 71.9386C1096.04 70.2907 1098.56 69.9104 1100.39 71.0935C1102.21 72.2766 1102.63 74.5866 1101.32 76.2345C1100.02 77.8824 1097.48 78.2627 1095.67 77.0795Z" fill="#F9F8F7"/>
<path d="M1074.61 103.756C1072.8 102.573 1072.36 100.263 1073.68 98.6152C1074.98 96.9673 1077.53 96.5729 1079.34 97.7701C1081.15 98.9533 1081.57 101.263 1080.27 102.911C1078.97 104.559 1076.43 104.939 1074.61 103.756Z" fill="#F9F8F7"/>
<path d="M1053.56 130.433C1051.75 129.25 1051.33 126.94 1052.63 125.292C1053.93 123.644 1056.47 123.25 1058.29 124.447C1060.1 125.63 1060.52 127.94 1059.22 129.588C1057.92 131.236 1055.37 131.616 1053.56 130.433Z" fill="#F9F8F7"/>
<path d="M1064.09 117.095C1062.27 115.911 1061.85 113.616 1063.16 111.954C1064.46 110.306 1067 109.925 1068.81 111.108C1070.63 112.292 1071.06 114.602 1069.74 116.249C1068.43 117.897 1065.9 118.278 1064.09 117.095Z" fill="#F9F8F7"/>
<path d="M1028.35 134.208C1026.52 133.024 1026.12 130.715 1027.42 129.067C1028.72 127.419 1031.27 127.038 1033.08 128.222C1034.89 129.405 1035.31 131.715 1034.01 133.363C1032.71 135.01 1030.17 135.391 1028.35 134.208Z" fill="#F9F8F7"/>
<path d="M1007.3 160.884C1005.49 159.701 1005.07 157.391 1006.37 155.743C1007.67 154.095 1010.21 153.715 1012.03 154.898C1013.84 156.081 1014.26 158.377 1012.96 160.039C1011.66 161.687 1009.11 162.067 1007.3 160.884Z" fill="#F9F8F7"/>
<path d="M1017.83 147.546C1016 146.363 1015.59 144.053 1016.9 142.405C1018.2 140.757 1020.74 140.377 1022.55 141.56C1024.37 142.743 1024.79 145.053 1023.48 146.701C1022.18 148.349 1019.64 148.743 1017.83 147.546Z" fill="#F9F8F7"/>
<path d="M996.789 174.209C994.975 173.025 994.557 170.716 995.859 169.068C997.161 167.42 999.704 167.039 1001.52 168.223C1003.33 169.406 1003.75 171.716 1002.45 173.363C1001.15 175.011 998.603 175.406 996.789 174.209Z" fill="#F9F8F7"/>
<path d="M975.736 200.885C973.922 199.702 973.504 197.392 974.806 195.744C976.108 194.096 978.651 193.716 980.465 194.899C982.278 196.082 982.697 198.392 981.395 200.04C980.092 201.688 977.55 202.082 975.736 200.885Z" fill="#F9F8F7"/>
<path d="M986.263 187.547C984.449 186.364 984.03 184.054 985.333 182.406C986.635 180.758 989.177 180.378 990.991 181.561C992.805 182.744 993.223 185.054 991.921 186.702C990.619 188.364 988.077 188.744 986.263 187.547Z" fill="#F9F8F7"/>
<path d="M1091.51 54.1917C1089.7 53.0086 1089.28 50.7128 1090.58 49.0507C1091.88 47.4028 1094.43 47.0225 1096.24 48.2057C1098.05 49.3888 1098.47 51.6987 1097.17 53.3467C1095.87 55.0087 1093.34 55.3889 1091.51 54.1917Z" fill="#F9F8F7"/>
<path d="M1070.46 80.8543C1068.64 79.6712 1068.23 77.3613 1069.53 75.7133C1070.83 74.0654 1073.37 73.6851 1075.19 74.8683C1077 76.0514 1077.42 78.3472 1076.12 80.0092C1074.82 81.6572 1072.27 82.0375 1070.46 80.8543Z" fill="#F9F8F7"/>
<path d="M1080.99 67.53C1079.17 66.3469 1078.75 64.0369 1080.06 62.389C1081.36 60.7411 1083.88 60.3608 1085.71 61.5439C1087.53 62.727 1087.95 65.037 1086.64 66.6849C1085.34 68.3328 1082.8 68.7272 1080.99 67.53Z" fill="#F9F8F7"/>
<path d="M1059.93 94.1926C1058.12 93.0095 1057.68 90.6995 1059 89.0516C1060.3 87.4037 1062.85 87.0234 1064.66 88.2065C1066.49 89.3897 1066.89 91.6855 1065.59 93.3475C1064.29 94.9954 1061.75 95.3898 1059.93 94.1926Z" fill="#F9F8F7"/>
<path d="M1038.88 120.869C1037.07 119.686 1036.65 117.376 1037.95 115.728C1039.25 114.08 1041.79 113.7 1043.61 114.883C1045.42 116.066 1045.84 118.376 1044.54 120.024C1043.24 121.672 1040.69 122.066 1038.88 120.869Z" fill="#F9F8F7"/>
<path d="M1049.41 107.531C1047.59 106.348 1047.17 104.038 1048.48 102.39C1049.78 100.742 1052.32 100.362 1054.13 101.545C1055.95 102.728 1056.38 105.024 1055.06 106.686C1053.76 108.348 1051.22 108.728 1049.41 107.531Z" fill="#F9F8F7"/>
<path d="M1013.67 124.644C1011.84 123.461 1011.44 121.151 1012.74 119.503C1014.04 117.855 1016.59 117.475 1018.4 118.658C1020.23 119.841 1020.65 122.137 1019.33 123.799C1018.03 125.447 1015.49 125.827 1013.67 124.644Z" fill="#F9F8F7"/>
<path d="M992.634 151.321C990.82 150.138 990.402 147.828 991.704 146.18C993.006 144.532 995.549 144.138 997.363 145.335C999.176 146.518 999.595 148.828 998.293 150.476C996.99 152.124 994.448 152.504 992.634 151.321Z" fill="#F9F8F7"/>
<path d="M1003.14 137.982C1001.33 136.799 1000.91 134.489 1002.21 132.841C1003.52 131.193 1006.06 130.813 1007.87 131.996C1009.69 133.179 1010.11 135.475 1008.8 137.137C1007.5 138.785 1004.96 139.166 1003.14 137.982Z" fill="#F9F8F7"/>
<path d="M982.108 164.645C980.294 163.462 979.875 161.152 981.178 159.504C982.48 157.856 985.022 157.462 986.836 158.659C988.65 159.842 989.069 162.152 987.766 163.8C986.464 165.448 983.922 165.828 982.108 164.645Z" fill="#F9F8F7"/>
<path d="M961.055 191.322C959.241 190.138 958.822 187.829 960.125 186.181C961.427 184.533 963.969 184.138 965.783 185.336C967.597 186.519 968.031 188.815 966.713 190.477C965.411 192.139 962.869 192.519 961.055 191.322Z" fill="#F9F8F7"/>
<path d="M971.581 177.983C969.767 176.8 969.349 174.49 970.651 172.842C971.953 171.194 974.496 170.814 976.31 171.997C978.124 173.18 978.542 175.476 977.24 177.138C975.938 178.8 973.395 179.181 971.581 177.983Z" fill="#F9F8F7"/>
<path d="M1076.83 44.6281C1075.02 43.445 1074.6 41.1351 1075.9 39.4872C1077.2 37.8392 1079.75 37.4589 1081.56 38.6421C1083.37 39.8252 1083.79 42.1351 1082.49 43.783C1081.19 45.431 1078.64 45.8253 1076.83 44.6281Z" fill="#F9F8F7"/>
<path d="M1055.78 71.3049C1053.96 70.1218 1053.55 67.8118 1054.85 66.1639C1056.15 64.516 1058.69 64.1357 1060.51 65.3188C1062.32 66.502 1062.75 68.8119 1061.44 70.4598C1060.13 72.1077 1057.59 72.488 1055.78 71.3049Z" fill="#F9F8F7"/>
<path d="M1066.3 57.9665C1064.49 56.7834 1064.06 54.4734 1065.37 52.8255C1066.68 51.1776 1069.22 50.7973 1071.03 51.9805C1072.85 53.1636 1073.26 55.4735 1071.96 57.1214C1070.66 58.7693 1068.12 59.1637 1066.3 57.9665Z" fill="#F9F8F7"/>
<path d="M1045.25 84.6291C1043.44 83.446 1043.02 81.1361 1044.32 79.4881C1045.62 77.8402 1048.17 77.4599 1049.98 78.643C1051.79 79.8262 1052.21 82.1361 1050.91 83.784C1049.61 85.4319 1047.06 85.8122 1045.25 84.6291Z" fill="#F9F8F7"/>
<path d="M1024.2 111.306C1022.38 110.123 1021.95 107.813 1023.27 106.165C1024.57 104.517 1027.11 104.137 1028.93 105.32C1030.74 106.503 1031.16 108.813 1029.86 110.461C1028.55 112.109 1026.01 112.489 1024.2 111.306Z" fill="#F9F8F7"/>
<path d="M1034.72 97.9675C1032.91 96.7844 1032.49 94.4885 1033.79 92.8265C1035.1 91.1786 1037.64 90.7983 1039.45 91.9814C1041.28 93.1645 1041.7 95.4745 1040.38 97.1224C1039.08 98.7703 1036.54 99.1506 1034.72 97.9675Z" fill="#F9F8F7"/>
<path d="M999.006 115.081C997.192 113.897 996.773 111.587 998.076 109.94C999.378 108.292 1001.92 107.911 1003.73 109.094C1005.55 110.278 1005.97 112.573 1004.66 114.235C1003.36 115.883 1000.82 116.278 999.006 115.081Z" fill="#F9F8F7"/>
<path d="M977.952 141.757C976.123 140.574 975.705 138.264 977.022 136.616C978.325 134.968 980.867 134.588 982.681 135.771C984.51 136.954 984.913 139.264 983.611 140.912C982.309 142.56 979.782 142.94 977.952 141.757Z" fill="#F9F8F7"/>
<path d="M988.479 128.419C986.665 127.236 986.247 124.926 987.549 123.278C988.851 121.63 991.394 121.25 993.208 122.433C995.021 123.616 995.44 125.912 994.138 127.574C992.836 129.222 990.293 129.616 988.479 128.419Z" fill="#F9F8F7"/>
<path d="M967.426 155.096C965.613 153.912 965.194 151.602 966.496 149.955C967.799 148.307 970.341 147.926 972.155 149.109C973.984 150.293 974.403 152.603 973.085 154.25C971.783 155.912 969.24 156.293 967.426 155.096Z" fill="#F9F8F7"/>
<path d="M946.373 181.758C944.56 180.575 944.141 178.265 945.443 176.617C946.746 174.969 949.288 174.589 951.102 175.772C952.916 176.955 953.35 179.251 952.032 180.913C950.73 182.575 948.187 182.955 946.373 181.758Z" fill="#F9F8F7"/>
<path d="M956.9 168.434C955.086 167.251 954.668 164.941 955.97 163.293C957.272 161.631 959.814 161.265 961.628 162.448C963.442 163.631 963.861 165.941 962.558 167.589C961.256 169.237 958.714 169.617 956.9 168.434Z" fill="#F9F8F7"/>
<path d="M1062.15 35.0645C1060.34 33.8814 1059.92 31.5715 1061.22 29.9236C1062.52 28.2756 1065.06 27.8953 1066.88 29.0785C1068.69 30.2616 1069.11 32.5574 1067.81 34.2194C1066.51 35.8674 1063.96 36.2477 1062.15 35.0645Z" fill="#F9F8F7"/>
<path d="M1041.1 61.7412C1039.27 60.558 1038.86 58.2481 1040.17 56.6002C1041.47 54.9523 1044.01 54.572 1045.82 55.7551C1047.64 56.9382 1048.07 59.2481 1046.75 60.8961C1045.45 62.544 1042.91 62.9384 1041.1 61.7412Z" fill="#F9F8F7"/>
<path d="M1051.62 48.4027C1049.81 47.2196 1049.39 44.9097 1050.69 43.2618C1051.99 41.5997 1054.54 41.2195 1056.35 42.4167C1058.16 43.6139 1058.58 45.9097 1057.28 47.5576C1055.98 49.2197 1053.44 49.5859 1051.62 48.4027Z" fill="#F9F8F7"/>
<path d="M1030.57 75.0795C1028.76 73.8964 1028.34 71.6006 1029.64 69.9386C1030.94 68.2907 1033.48 67.9104 1035.3 69.0935C1037.13 70.2766 1037.53 72.5865 1036.23 74.2344C1034.93 75.8824 1032.38 76.2627 1030.57 75.0795Z" fill="#F9F8F7"/>
<path d="M1009.52 101.742C1007.7 100.559 1007.28 98.249 1008.59 96.6011C1009.89 94.9391 1012.43 94.5729 1014.24 95.756C1016.06 96.9391 1016.48 99.235 1015.17 100.897C1013.87 102.559 1011.33 102.939 1009.52 101.742Z" fill="#F9F8F7"/>
<path d="M1020.04 88.4037C1018.23 87.2206 1017.81 84.9107 1019.11 83.2627C1020.41 81.6007 1022.96 81.2345 1024.77 82.4176C1026.6 83.6008 1027.02 85.8966 1025.7 87.5586C1024.4 89.2065 1021.86 89.5868 1020.04 88.4037Z" fill="#F9F8F7"/>
<path d="M984.325 105.517C982.511 104.334 982.092 102.024 983.394 100.376C984.697 98.728 987.239 98.3477 989.053 99.5309C990.867 100.714 991.285 103.024 989.983 104.672C988.681 106.32 986.138 106.7 984.325 105.517Z" fill="#F9F8F7"/>
<path d="M963.272 132.194C961.458 131.01 961.039 128.701 962.341 127.053C963.644 125.405 966.186 125.024 968 126.207C969.814 127.391 970.232 129.701 968.93 131.348C967.628 132.996 965.085 133.377 963.272 132.194Z" fill="#F9F8F7"/>
<path d="M973.798 118.855C971.984 117.672 971.566 115.376 972.868 113.714C974.17 112.066 976.713 111.686 978.526 112.869C980.34 114.052 980.759 116.362 979.457 118.01C978.154 119.658 975.612 120.038 973.798 118.855Z" fill="#F9F8F7"/>
<path d="M952.745 145.532C950.916 144.349 950.513 142.039 951.815 140.391C953.117 138.743 955.66 138.363 957.473 139.546C959.287 140.729 959.706 143.039 958.404 144.687C957.101 146.335 954.559 146.715 952.745 145.532Z" fill="#F9F8F7"/>
<path d="M931.692 172.194C929.863 171.011 929.46 168.701 930.762 167.053C932.064 165.406 934.591 165.011 936.42 166.208C938.25 167.391 938.668 169.701 937.351 171.349C936.048 172.997 933.506 173.378 931.692 172.194Z" fill="#F9F8F7"/>
<path d="M942.219 158.87C940.405 157.687 939.986 155.377 941.288 153.729C942.591 152.081 945.133 151.701 946.947 152.884C948.761 154.067 949.179 156.363 947.877 158.025C946.575 159.673 944.032 160.053 942.219 158.87Z" fill="#F9F8F7"/>
<path d="M1047.47 25.5009C1045.65 24.3178 1045.23 22.0079 1046.54 20.36C1047.84 18.712 1050.38 18.3317 1052.2 19.5149C1054.01 20.698 1054.43 23.0079 1053.13 24.6558C1051.82 26.3038 1049.28 26.6841 1047.47 25.5009Z" fill="#F9F8F7"/>
<path d="M1026.41 52.1777C1024.6 50.9946 1024.18 48.6847 1025.48 47.0367C1026.79 45.3888 1029.33 45.0085 1031.14 46.1916C1032.97 47.3748 1033.39 49.6847 1032.07 51.3326C1030.77 52.9946 1028.23 53.3749 1026.41 52.1777Z" fill="#F9F8F7"/>
<path d="M1036.94 38.8392C1035.11 37.6561 1034.69 35.3462 1036.01 33.6982C1037.31 32.0503 1039.85 31.67 1041.67 32.8531C1043.5 34.0363 1043.9 36.3462 1042.6 37.9941C1041.3 39.642 1038.75 40.0223 1036.94 38.8392Z" fill="#F9F8F7"/>
<path d="M1015.9 65.5159C1014.07 64.3328 1013.67 62.0229 1014.97 60.375C1016.28 58.7271 1018.82 58.3468 1020.63 59.5299C1022.45 60.713 1022.86 63.0229 1021.56 64.6708C1020.26 66.3329 1017.72 66.6991 1015.9 65.5159Z" fill="#F9F8F7"/>
<path d="M994.85 92.1785C993.036 90.9954 992.618 88.6855 993.92 87.0376C995.222 85.3897 997.765 85.0094 999.579 86.1925C1001.41 87.3756 1001.81 89.6715 1000.51 91.3335C999.207 92.9814 996.664 93.3757 994.85 92.1785Z" fill="#F9F8F7"/>
<path d="M1005.36 78.8402C1003.55 77.657 1003.13 75.3471 1004.43 73.6992C1005.73 72.0513 1008.28 71.671 1010.09 72.8541C1011.9 74.0372 1012.32 76.3472 1011.02 77.9951C1009.72 79.6571 1007.17 80.0374 1005.36 78.8402Z" fill="#F9F8F7"/>
<rect x="20.1696" y="190.281" width="1351.68" height="157.301" transform="rotate(4.21183 20.1696 190.281)" fill="#D9BA38"/>
<rect x="18.8365" y="208.382" width="1351.68" height="122.211" transform="rotate(4.21183 18.8365 208.382)" fill="#197799"/>
<rect x="18.8365" y="208.382" width="1351.68" height="122.211" transform="rotate(4.21183 18.8365 208.382)" fill="black" fill-opacity="0.2"/>
<rect x="16.7038" y="237.343" width="1351.68" height="64.1303" transform="rotate(4.21183 16.7038 237.343)" fill="#F5DFCE"/>
<rect x="16.0817" y="245.791" width="1351.68" height="47.1902" transform="rotate(4.21183 16.0817 245.791)" fill="#C64940"/>
<defs>
<clipPath id="clip0_0_1">
<rect width="1367" height="627" fill="white"/>
</clipPath>
</defs>
</svg>
