<svg width="40" height="40" viewBox="0 0 40 40" fill="none" xmlns="http://www.w3.org/2000/svg">
<g clip-path="url(#clip0_34_8169)">
<path d="M13.3344 20C13.3344 16.3182 16.3182 13.3328 20 13.3328C23.6818 13.3328 26.6672 16.3182 26.6672 20C26.6672 23.6818 23.6818 26.6672 20 26.6672C16.3182 26.6672 13.3344 23.6818 13.3344 20ZM9.73024 20C9.73024 25.672 14.328 30.2698 20 30.2698C25.672 30.2698 30.2698 25.672 30.2698 20C30.2698 14.328 25.672 9.73024 20 9.73024C14.328 9.73024 9.73024 14.328 9.73024 20ZM28.2763 9.32304C28.2763 10.6477 29.3506 11.7237 30.677 11.7237C32.0034 11.7237 33.0776 10.6477 33.0776 9.32304C33.0776 7.9984 32.0034 6.924 30.677 6.924C29.3506 6.924 28.2763 7.99824 28.2763 9.32304ZM11.9194 36.2794C9.96944 36.1906 8.9096 35.8658 8.20528 35.5912C7.27152 35.2277 6.60592 34.7947 5.9048 34.0952C5.20528 33.3957 4.77072 32.7301 4.4088 31.7963C4.13424 31.092 3.80944 30.0322 3.72064 28.0822C3.62368 25.9741 3.60432 25.3408 3.60432 19.9998C3.60432 14.6589 3.62528 14.0274 3.72064 11.9174C3.80944 9.96752 4.13584 8.90944 4.4088 8.20336C4.77232 7.2696 5.20528 6.604 5.9048 5.90288C6.60432 5.20336 7.26992 4.7688 8.20528 4.40688C8.9096 4.13232 9.96944 3.80752 11.9194 3.71872C14.0275 3.62176 14.6608 3.6024 20.0002 3.6024C25.3395 3.6024 25.9726 3.62336 28.0826 3.71872C30.0325 3.80752 31.0906 4.13392 31.7966 4.40688C32.7304 4.7688 33.396 5.20336 34.0971 5.90288C34.7966 6.6024 35.2296 7.2696 35.5931 8.20336C35.8677 8.90768 36.1925 9.96752 36.2813 11.9174C36.3782 14.0274 36.3976 14.6589 36.3976 19.9998C36.3976 25.3408 36.3782 25.9723 36.2813 28.0822C36.1925 30.0322 35.8661 31.092 35.5931 31.7963C35.2296 32.7301 34.7966 33.3957 34.0971 34.0952C33.3976 34.7947 32.7304 35.2277 31.7966 35.5912C31.0923 35.8658 30.0325 36.1906 28.0826 36.2794C25.9744 36.3763 25.3411 36.3957 20.0002 36.3957C14.6592 36.3957 14.0277 36.3763 11.9194 36.2794ZM11.7544 0.12112C9.62512 0.21808 8.1712 0.55568 6.89984 1.05008C5.5848 1.56064 4.47008 2.2456 3.35696 3.35696C2.24544 4.46848 1.56048 5.5832 1.05008 6.89984C0.55568 8.1712 0.21808 9.62528 0.12112 11.7544C0.02256 13.8869 0 14.5686 0 20C0 25.4314 0.02256 26.1131 0.12112 28.2456C0.21808 30.3749 0.55568 31.8288 1.05008 33.1002C1.56064 34.4152 2.244 35.5315 3.35696 36.643C4.46848 37.7546 5.5832 38.4379 6.89984 38.9499C8.1728 39.4443 9.62528 39.7819 11.7544 39.8789C13.8885 39.9758 14.5686 40 20 40C25.4314 40 26.1131 39.9774 28.2456 39.8789C30.3749 39.7819 31.8288 39.4443 33.1002 38.9499C34.4152 38.4378 35.5299 37.7544 36.643 36.643C37.7546 35.5315 38.4379 34.4152 38.9499 33.1002C39.4443 31.8288 39.7835 30.3747 39.8789 28.2456C39.9758 26.1115 39.9984 25.4314 39.9984 20C39.9984 14.5686 39.9758 13.8869 39.8789 11.7544C39.7819 9.62512 39.4443 8.1712 38.9499 6.89984C38.4378 5.5848 37.7544 4.47008 36.643 3.35696C35.5315 2.24544 34.4152 1.56048 33.1019 1.05008C31.829 0.55568 30.3749 0.21648 28.2474 0.12112C26.1147 0.02416 25.433 0 20.0016 0C14.5702 0 13.8885 0.02256 11.7544 0.12112Z" fill="white"/>
</g>
<defs>
<clipPath id="clip0_34_8169">
<rect width="39.9984" height="40" fill="white"/>
</clipPath>
</defs>
</svg>
