<svg width="214" height="229" viewBox="0 0 214 229" fill="none" xmlns="http://www.w3.org/2000/svg">
<g clip-path="url(#clip0_0_1)">
<path d="M159.84 211.222H142.08V229H159.84V211.222Z" fill="#D9BA38"/>
<path d="M142.08 211.222H124.32V229H142.08V211.222Z" fill="#D9BA38"/>
<path d="M88.8 211.222H71.04V229H88.8V211.222Z" fill="#D9BA38"/>
<path d="M71.04 211.222H53.28V229H71.04V211.222Z" fill="#D9BA38"/>
<path d="M142.08 193.444H124.32V211.222H142.08V193.444Z" fill="#D9BA38"/>
<path d="M88.8 193.444H71.04V211.222H88.8V193.444Z" fill="#D9BA38"/>
<path d="M213.12 175.667H195.36V193.445H213.12V175.667Z" fill="#197799"/>
<path d="M159.84 175.667H142.08V193.445H159.84V175.667Z" fill="#D9BA38"/>
<path d="M142.08 175.667H124.32V193.445H142.08V175.667Z" fill="#D9BA38"/>
<path d="M124.32 175.667H106.56V193.445H124.32V175.667Z" fill="#D9BA38"/>
<path d="M106.56 175.667H88.8V193.445H106.56V175.667Z" fill="#D9BA38"/>
<path d="M88.8 175.667H71.04V193.445H88.8V175.667Z" fill="#D9BA38"/>
<path d="M71.04 175.667H53.28V193.445H71.04V175.667Z" fill="#D9BA38"/>
<path d="M17.76 175.667H0V193.445H17.76V175.667Z" fill="#197799"/>
<path d="M213.12 157.889H195.36V175.667H213.12V157.889Z" fill="#197799"/>
<path d="M177.6 157.889H159.84V175.667H177.6V157.889Z" fill="#C64940"/>
<path d="M159.84 157.889H142.08V175.667H159.84V157.889Z" fill="#C64940"/>
<path d="M142.08 157.889H124.32V175.667H142.08V157.889Z" fill="#C64940"/>
<path d="M124.32 157.889H106.56V175.667H124.32V157.889Z" fill="#C64940"/>
<path d="M106.56 157.889H88.8V175.667H106.56V157.889Z" fill="#C64940"/>
<path d="M88.8 157.889H71.04V175.667H88.8V157.889Z" fill="#C64940"/>
<path d="M71.04 157.889H53.28V175.667H71.04V157.889Z" fill="#C64940"/>
<path d="M53.28 157.889H35.52V175.667H53.28V157.889Z" fill="#C64940"/>
<path d="M17.76 157.889H0V175.667H17.76V157.889Z" fill="#197799"/>
<path d="M213.12 140.111H195.36V157.889H213.12V140.111Z" fill="#197799"/>
<path d="M195.36 140.111H177.6V157.889H195.36V140.111Z" fill="#197799"/>
<path d="M177.6 140.111H159.84V157.889H177.6V140.111Z" fill="#C64940"/>
<path d="M159.84 140.111H142.08V157.889H159.84V140.111Z" fill="#C64940"/>
<path d="M124.32 140.111H106.56V157.889H124.32V140.111Z" fill="#C64940"/>
<path d="M106.56 140.111H88.8V157.889H106.56V140.111Z" fill="#C64940"/>
<path d="M71.04 140.111H53.28V157.889H71.04V140.111Z" fill="#C64940"/>
<path d="M53.28 140.111H35.52V157.889H53.28V140.111Z" fill="#C64940"/>
<path d="M35.52 140.111H17.76V157.889H35.52V140.111Z" fill="#197799"/>
<path d="M17.76 140.111H0V157.889H17.76V140.111Z" fill="#197799"/>
<path d="M195.36 122.333H177.6V140.111H195.36V122.333Z" fill="#197799"/>
<path d="M177.6 122.333H159.84V140.111H177.6V122.333Z" fill="#C64940"/>
<path d="M159.84 122.333H142.08V140.111H159.84V122.333Z" fill="#C64940"/>
<path d="M142.08 122.333H124.32V140.111H142.08V122.333Z" fill="#C64940"/>
<path d="M124.32 122.333H106.56V140.111H124.32V122.333Z" fill="#C64940"/>
<path d="M106.56 122.333H88.8V140.111H106.56V122.333Z" fill="#C64940"/>
<path d="M88.8 122.333H71.04V140.111H88.8V122.333Z" fill="#C64940"/>
<path d="M71.04 122.333H53.28V140.111H71.04V122.333Z" fill="#C64940"/>
<path d="M53.28 122.333H35.52V140.111H53.28V122.333Z" fill="#C64940"/>
<path d="M35.52 122.333H17.76V140.111H35.52V122.333Z" fill="#197799"/>
<path d="M177.6 104.556H159.84V122.333H177.6V104.556Z" fill="#197799"/>
<path d="M159.84 104.556H142.08V122.333H159.84V104.556Z" fill="#197799"/>
<path d="M142.08 104.556H124.32V122.333H142.08V104.556Z" fill="#197799"/>
<path d="M124.32 104.556H106.56V122.333H124.32V104.556Z" fill="#197799"/>
<path d="M106.56 104.556H88.8V122.333H106.56V104.556Z" fill="#197799"/>
<path d="M88.8 104.556H71.04V122.333H88.8V104.556Z" fill="#197799"/>
<path d="M71.04 104.556H53.28V122.333H71.04V104.556Z" fill="#197799"/>
<path d="M53.28 104.556H35.52V122.333H53.28V104.556Z" fill="#197799"/>
<path d="M159.84 86.7778H142.08V104.556H159.84V86.7778Z" fill="#197799"/>
<path d="M71.04 86.7778H53.28V104.556H71.04V86.7778Z" fill="#197799"/>
<path d="M159.84 69H142.08V86.7778H159.84V69Z" fill="#197799"/>
<path d="M142.08 69H124.32V86.7778H142.08V69Z" fill="#197799"/>
<path d="M88.8 69H71.04V86.7778H88.8V69Z" fill="#197799"/>
<path d="M71.04 69H53.28V86.7778H71.04V69Z" fill="#197799"/>
</g>
<rect x="136" width="50" height="67" fill="#D9D9D9"/>
<defs>
<clipPath id="clip0_0_1">
<rect width="213.12" height="160" fill="white" transform="translate(0 69)"/>
</clipPath>
</defs>
</svg>
