<svg width="64" height="40" viewBox="0 0 64 40" fill="none" xmlns="http://www.w3.org/2000/svg">
<g clip-path="url(#clip0_34_8180)">
<path fill-rule="evenodd" clip-rule="evenodd" d="M0 40H63.2204V0H0V40Z" fill="#1B3771"/>
<path fill-rule="evenodd" clip-rule="evenodd" d="M31.6613 32.7793C34.7117 35.5595 38.8138 37.2539 43.2547 37.2539C52.814 37.2539 60.5425 29.5248 60.5425 19.9653C60.5425 10.4057 52.8143 2.67725 43.2547 2.67725C38.8138 2.67725 34.712 4.37216 31.6613 7.1518C28.1695 10.3378 25.9662 14.8805 25.9662 19.965C25.9662 25.0495 28.1695 29.6266 31.6613 32.779V32.7793Z" fill="#E9B040"/>
<path fill-rule="evenodd" clip-rule="evenodd" d="M58.2374 29.593C58.2374 29.288 58.474 29.0505 58.8138 29.0505C59.1189 29.0505 59.3563 29.288 59.3563 29.593C59.3563 29.8981 59.1189 30.1694 58.8138 30.1694C58.4981 30.1719 58.2402 29.9181 58.2374 29.6025C58.2374 29.5994 58.2374 29.5961 58.2374 29.593ZM58.8138 30.0332C59.0165 30.0332 59.2206 29.8305 59.2206 29.5925C59.2206 29.3545 59.0171 29.1856 58.8138 29.1856C58.5764 29.1856 58.373 29.3551 58.373 29.5925C58.373 29.8299 58.5764 30.0332 58.8138 30.0332ZM58.712 29.864H58.6102V29.3553H58.8138C58.8476 29.3553 58.9156 29.3553 58.9494 29.3892C58.9832 29.4239 59.0171 29.4571 59.0171 29.491C59.0171 29.5589 58.9832 29.6266 58.9161 29.6266L59.0171 29.864H58.8814L58.8138 29.6604H58.712V29.864ZM58.712 29.5589H58.8476C58.8814 29.5589 58.8814 29.5243 58.8814 29.491C58.8814 29.491 58.8814 29.4571 58.8476 29.4571H58.712V29.5589Z" fill="#E9B040"/>
<path fill-rule="evenodd" clip-rule="evenodd" d="M37.2542 18.1354C37.1854 17.5202 37.0836 16.9092 36.9491 16.3051H26.373C26.5109 15.6866 26.6806 15.0756 26.8817 14.4746H36.441C36.2333 13.8533 35.9956 13.2423 35.729 12.6441H27.5931C27.906 12.0198 28.2452 11.409 28.6102 10.8135H34.7117C34.3328 10.1612 33.8902 9.54797 33.3901 8.98328H29.932C30.4407 8.33899 31.0509 7.72881 31.6608 7.15302C28.6099 4.3731 24.5419 2.67847 20.0674 2.67847C10.5081 2.67847 2.77908 10.4413 2.77908 19.9662C2.77908 29.4911 10.5081 37.2548 20.0674 37.2548C24.5419 37.2548 28.6096 35.5602 31.6608 32.7803C32.2704 32.2039 32.8814 31.5943 33.4234 30.95H29.9315C29.4531 30.3681 29.0115 29.7568 28.6096 29.1197H34.7117C35.0906 28.5323 35.4303 27.9207 35.729 27.2886H27.5931C27.3152 26.6951 27.0772 26.0838 26.8811 25.4584H36.4404C36.641 24.8571 36.811 24.2461 36.9491 23.6273C37.0847 23.0177 37.1857 22.4067 37.2542 21.797C37.3898 20.5803 37.3898 19.3522 37.2542 18.1354Z" fill="#CC2131"/>
<path fill-rule="evenodd" clip-rule="evenodd" d="M58.2374 23.9661C58.2374 23.661 58.474 23.4236 58.8138 23.4236C59.1189 23.4236 59.3563 23.661 59.3563 23.9661C59.3563 24.2712 59.1189 24.5424 58.8138 24.5424C58.4984 24.5452 58.2402 24.2917 58.2374 23.9764C58.2374 23.973 58.2374 23.9697 58.2374 23.9664V23.9661ZM58.8138 24.4068C59.0165 24.4068 59.2206 24.2032 59.2206 23.9661C59.2206 23.729 59.0171 23.5592 58.8138 23.5592C58.5764 23.5592 58.373 23.7287 58.373 23.9661C58.373 24.2035 58.5764 24.4068 58.8138 24.4068ZM58.712 24.2373H58.6102V23.7287H58.8138C58.8476 23.7287 58.9156 23.7287 58.9494 23.7625C58.9832 23.7972 59.0171 23.8305 59.0171 23.8643C59.0171 23.9323 58.9832 23.9999 58.9161 23.9999L59.0171 24.2373H58.8814L58.8138 24.0338H58.712V24.2373ZM58.712 23.9325H58.8476C58.8814 23.9325 58.8814 23.8979 58.8814 23.8646C58.8814 23.8646 58.8814 23.8307 58.8476 23.8307H58.712V23.9325Z" fill="white"/>
<path fill-rule="evenodd" clip-rule="evenodd" d="M25.7967 24.9491C25.2204 25.1186 24.8135 25.1865 24.3731 25.1865C23.4916 25.1865 22.9494 24.644 22.9494 23.6267C22.9494 23.4239 22.9832 23.2198 23.0171 22.9832L23.1186 22.3051L23.2204 21.7282L24.0341 16.847H25.8306L25.6272 17.9315H26.7461L26.4748 19.7282H25.3566L24.8479 22.6434C24.8479 22.7452 24.814 22.8462 24.814 22.9147C24.814 23.2877 25.0173 23.4572 25.4583 23.4572C25.6958 23.4572 25.8314 23.4234 26.0347 23.3893L25.7973 24.9491H25.7967ZM31.5931 24.8809C30.9685 25.0814 30.3168 25.1846 29.6608 25.1865C27.6608 25.1865 26.4743 24.1015 26.4743 21.9997C26.4743 19.5593 27.8644 17.7287 29.7626 17.7287C31.288 17.7287 32.271 18.7458 32.271 20.3389C32.271 20.8476 32.2033 21.3562 32.0344 22.1015H28.3051V22.3051C28.3051 23.1521 28.8476 23.559 29.9321 23.559C30.6102 23.559 31.2201 23.4234 31.8982 23.1183L31.5931 24.8806V24.8809ZM30.4743 20.6437V20.3054C30.4743 19.729 30.1354 19.3901 29.5929 19.3901C28.9827 19.3901 28.5758 19.8308 28.4066 20.644H30.4743V20.6437ZM11.4572 25.0512H9.59286L10.6779 18.3054L8.27099 25.0512H6.98323L6.84761 18.3392L5.69465 25.0512H3.89822L5.35572 16.271H8.03357L8.13564 21.6949L9.93206 16.271H12.9153L11.4572 25.0512ZM15.9659 21.8644C15.7626 21.8644 15.7285 21.8305 15.5929 21.8305C14.5422 21.8305 13.9997 22.2374 13.9997 22.9155C13.9997 23.3895 14.2707 23.6616 14.6776 23.6616C15.5931 23.6616 15.9321 22.9153 15.9662 21.8644H15.9659ZM17.4572 25.0512H15.8303L15.8641 24.3051C15.4572 24.8814 14.9147 25.1868 13.8979 25.1868C12.9827 25.1868 12.2372 24.373 12.2372 23.2201C12.2372 22.8817 12.3048 22.5766 12.3725 22.3054C12.6776 21.1862 13.7962 20.5081 15.4913 20.4743C15.6946 20.4743 16.0338 20.4743 16.3045 20.5081C16.3722 20.2715 16.3722 20.1697 16.3722 20.0341C16.3722 19.5595 15.9995 19.4239 15.1183 19.4239C14.5758 19.4239 14 19.5257 13.559 19.6272L13.3219 19.729H13.1863L13.4575 18.1359C14.3389 17.8646 14.9488 17.7628 15.627 17.7628C17.2539 17.7628 18.1015 18.4748 18.1015 19.8646C18.1015 20.203 18.1354 20.4743 17.9997 21.2542L17.627 23.7967L17.5593 24.2374L17.4916 24.6096V24.847L17.4575 25.0509L17.4572 25.0512ZM40.6099 18.0003C41.1177 18.0003 41.5926 18.1356 42.2707 18.4748L42.5758 16.5425C42.4063 16.4748 42.3722 16.4748 42.1351 16.373L41.3552 16.2036C41.1178 16.1359 40.8465 16.1021 40.5081 16.1021C39.5926 16.1021 39.0501 16.1021 38.4743 16.4748C38.1692 16.6443 37.7962 16.9155 37.356 17.3904L37.1524 17.3224L35.2204 18.6787L35.3222 17.9329H33.3219L32.2036 25.0517H34.0685L34.7467 21.2215C34.7467 21.2215 35.0179 20.6789 35.1535 20.5092C35.4919 20.0685 35.797 20.0685 36.17 20.0685H36.3057C36.2718 20.4754 36.2377 20.9502 36.2377 21.4248C36.2377 23.7637 37.5601 25.2217 39.594 25.2217C40.1026 25.2217 40.5433 25.1538 41.2209 24.9505L41.5593 22.9502C40.9497 23.2558 40.441 23.3909 39.9665 23.3909C38.8814 23.3909 38.2371 22.6118 38.2371 21.2556C38.2371 19.3565 39.186 18.0008 40.6102 18.0008L40.6099 18.0003ZM56.4399 16.271L56.033 18.7796C55.5923 18.1015 55.0504 17.7964 54.3384 17.7964C53.3557 17.7964 52.4402 18.3389 51.8638 19.3895L50.677 18.6776L50.7788 17.9318H48.7785L47.6264 25.0506H49.5246L50.1343 21.2203C50.1343 21.2203 50.6091 20.6778 50.7447 20.5081C51.016 20.1697 51.321 20.0674 51.5585 20.0674C51.3333 20.7455 51.2187 21.4553 51.2193 22.1697C51.2193 23.9661 52.1686 25.1521 53.5243 25.1521C54.2025 25.1521 54.745 24.9155 55.2537 24.3392L55.1519 25.0512H56.9483L58.3725 16.271H56.4402V16.2707L56.4399 16.271ZM54.1692 23.3557C53.5249 23.3557 53.2198 22.915 53.2198 21.9661C53.2198 20.5766 53.7962 19.5595 54.677 19.5595C55.3213 19.5595 55.6605 20.0679 55.6605 20.9832C55.6605 22.3727 55.0501 23.3557 54.1692 23.3557ZM45.5246 21.8644C45.3219 21.8644 45.288 21.8305 45.1524 21.8305C44.1012 21.8305 43.5587 22.2374 43.5587 22.9155C43.5587 23.3895 43.83 23.6616 44.2369 23.6616C45.1521 23.6616 45.4908 22.9153 45.5246 21.8644ZM47.016 25.0512H45.3896L45.4234 24.3051C45.0165 24.8814 44.474 25.1868 43.4567 25.1868C42.542 25.1868 41.7282 24.4069 41.7282 23.2201C41.762 21.5254 43.016 20.4743 45.0498 20.4743C45.2534 20.4743 45.5923 20.4743 45.8636 20.5081C45.9315 20.2715 45.9315 20.1697 45.9315 20.0341C45.9315 19.5595 45.5585 19.4239 44.6768 19.4239C44.1343 19.4239 43.5246 19.5257 43.1177 19.6272L42.8465 19.729H42.7447L43.016 18.1359C43.8977 17.8646 44.5073 17.7628 45.1854 17.7628C46.8124 17.7628 47.66 18.4748 47.66 19.8646C47.66 20.203 47.6938 20.4743 47.5582 21.2542L47.186 23.7967L47.118 24.2374L47.0504 24.6096L47.0157 24.847V25.0509L47.016 25.0512ZM21.3552 19.4578C21.7282 19.4578 22.2366 19.4916 22.7788 19.5595L23.0501 17.8985C22.5076 17.8308 21.7962 17.7628 21.3554 17.7628C19.2875 17.7628 18.5758 18.8817 18.5758 20.2036C18.5758 21.0506 18.9824 21.6949 19.9653 22.1356C20.745 22.5087 20.8806 22.5769 20.8806 22.8817C20.8806 23.3224 20.4737 23.5937 19.7279 23.5937C19.1857 23.5937 18.6773 23.4919 18.0669 23.3224L17.8636 24.9494H17.8977L18.2366 25.0173C18.3381 25.0512 18.5078 25.085 18.7111 25.085C19.1857 25.1527 19.5582 25.1527 19.7956 25.1527C21.8636 25.1527 22.745 24.3736 22.745 22.7799C22.745 21.7972 22.2704 21.2209 21.3213 20.814C20.5417 20.441 20.4399 20.4071 20.4399 20.0679C20.4399 19.7287 20.7788 19.4578 21.3552 19.4578Z" fill="#1B3771"/>
<path fill-rule="evenodd" clip-rule="evenodd" d="M43.085 16L42.7794 17.8982C42.1012 17.5593 41.6272 17.4237 41.1186 17.4237C39.6952 17.4237 38.7125 18.7799 38.7125 20.712C38.7125 22.0344 39.3906 22.8473 40.4745 22.8473C40.9494 22.8473 41.458 22.7125 42.0682 22.4066L41.7298 24.4069C41.0517 24.5764 40.6115 24.6443 40.069 24.6443C38.0688 24.6443 36.8146 23.2201 36.8146 20.8812C36.8146 17.7285 38.543 15.5596 41.0176 15.5596C41.3568 15.5596 41.6281 15.5934 41.8655 15.6272L42.6446 15.8305C42.882 15.9321 42.9158 15.9321 43.0855 16H43.085ZM37.0853 17.3219C37.0173 17.288 36.9496 17.288 36.8817 17.288C36.2721 17.288 35.9323 17.5931 35.3565 18.4407L35.526 17.3557H33.7975L32.6784 24.5084H34.5433C35.2215 20.1356 35.3904 19.3896 36.3059 19.3896H36.4415C36.611 18.542 36.8146 17.8982 37.1535 17.3216H37.0855V17.3219H37.0853ZM26.2712 24.4066C25.7626 24.5761 25.356 24.644 24.915 24.644C23.9656 24.644 23.4236 24.1015 23.4236 23.0842C23.4236 22.8814 23.4575 22.6773 23.4913 22.4407L23.5928 21.7285L23.6946 21.186L24.5084 16.3048H26.3727L26.1694 17.3554H27.1188L26.8476 19.118H25.8988L25.3901 22.0674C25.3901 22.203 25.3562 22.3048 25.3562 22.3725C25.3562 22.7455 25.5595 22.915 26.0005 22.915C26.238 22.915 26.3736 22.8812 26.5092 22.847L26.2715 24.4063L26.2712 24.4066ZM19.0509 19.627C19.0509 20.5078 19.4916 21.1521 20.4745 21.5929C21.2542 21.9659 21.356 22.0677 21.356 22.4066C21.356 22.8473 21.017 23.0509 20.271 23.0509C19.7285 23.0509 19.2203 22.9491 18.6099 22.7458L18.3386 24.4066H18.4404L18.7796 24.4746C18.9333 24.5212 19.0933 24.5439 19.2542 24.5422C19.6949 24.5761 20.0679 24.6099 20.3048 24.6099C22.271 24.6099 23.1862 23.8647 23.1862 22.2371C23.1862 21.2545 22.8135 20.6781 21.8644 20.2369C21.0844 19.8985 20.9829 19.7967 20.9829 19.4916C20.9829 19.0847 21.288 18.8814 21.8982 18.8814C22.2712 18.8814 22.7796 18.9491 23.2539 19.0171L23.5252 17.356C23.0506 17.2883 22.3045 17.2204 21.8644 17.2204C19.7628 17.2204 19.0509 18.3054 19.0509 19.6272V19.627ZM57.4242 24.5084H55.6278L55.7287 23.7964C55.2201 24.3389 54.6776 24.5755 53.9994 24.5755C52.644 24.5755 51.7287 23.4234 51.7287 21.627C51.7287 19.2539 53.1183 17.2539 54.7791 17.2539C55.5252 17.2539 56.0677 17.559 56.5755 18.2371L56.9824 15.7285H58.8473L57.4239 24.5087L57.4242 24.5084ZM54.644 22.8129C55.5257 22.8129 56.1353 21.8303 56.1353 20.4069C56.1353 19.5252 55.797 19.0168 55.1527 19.0168C54.3056 19.0168 53.6946 19.9995 53.6946 21.4234C53.6946 22.3389 53.9997 22.8129 54.644 22.8129ZM32 24.3389C31.356 24.5417 30.7461 24.644 30.0679 24.644C27.9661 24.644 26.8814 23.5249 26.8814 21.4572C26.8814 18.983 28.2715 17.1863 30.1697 17.1863C31.6952 17.1863 32.6781 18.2033 32.6781 19.7964C32.6781 20.3051 32.6104 20.8138 32.4754 21.559H28.7466C28.7125 21.6608 28.7125 21.6946 28.7125 21.7626C28.7125 22.5764 29.255 23.0165 30.3736 23.0165C31.0179 23.0165 31.6281 22.8809 32.3059 22.5758L32.0003 24.3387L32 24.3389ZM30.9496 20.101V19.7282C30.9496 19.1519 30.6443 18.8129 30.0682 18.8129C29.4921 18.8129 29.0512 19.2875 28.882 20.1007H30.9496V20.101ZM11.9326 24.5084H10.0682L11.1527 17.7626L8.74579 24.5084H7.45804L7.32241 17.7964L6.16973 24.5084H4.44098L5.89847 15.7282H8.57633L8.67812 21.1521L10.4748 15.7282H13.3901L11.9326 24.5084ZM16.5766 21.3216C16.373 21.2878 16.2715 21.2878 16.1359 21.2878C15.0853 21.2878 14.5428 21.6608 14.5428 22.3728C14.5428 22.8135 14.8137 23.1189 15.2206 23.1189C16.0005 23.1189 16.543 22.3728 16.5769 21.3216H16.5766ZM17.9323 24.5084H16.373L16.4071 23.7623C15.9326 24.3392 15.3221 24.6094 14.441 24.6094C13.4239 24.6094 12.7461 23.8303 12.7461 22.6773C12.7461 20.9488 13.9329 19.9315 16.0344 19.9315C16.2377 19.9315 16.5089 19.9315 16.7802 19.9653C16.8479 19.762 16.8479 19.6605 16.8479 19.5252C16.8479 19.0506 16.5428 18.8809 15.6616 18.8809C15.1191 18.8809 14.5089 18.9486 14.1023 19.0842L13.8311 19.1519L13.6616 19.1857L13.9329 17.5926C14.8817 17.3213 15.4919 17.2195 16.17 17.2195C17.797 17.2195 18.6446 17.9315 18.6446 19.2875C18.6446 19.6605 18.6104 19.9315 18.4748 20.7111L18.1021 23.2536L18.0344 23.6944L18.0003 24.0666L17.9664 24.304L17.9329 24.5084H17.9323ZM46.1359 21.3216C45.9331 21.2878 45.8308 21.2878 45.6952 21.2878C44.644 21.2878 44.1015 21.6608 44.1015 22.3728C44.1015 22.8135 44.3727 23.1189 44.7796 23.1189C45.5254 23.1189 46.1021 22.3728 46.1359 21.3216ZM47.4916 24.5084H45.9326L45.9664 23.7623C45.4916 24.3392 44.8481 24.6094 43.9997 24.6094C42.9832 24.6094 42.2712 23.8303 42.2712 22.6773C42.2712 20.9488 43.4919 19.9315 45.5928 19.9315C45.7956 19.9315 46.0677 19.9315 46.3381 19.9653C46.406 19.762 46.406 19.6605 46.406 19.5252C46.406 19.0506 46.1009 18.8809 45.2192 18.8809C44.6767 18.8809 44.0671 18.9486 43.6602 19.0842L43.389 19.1519L43.2195 19.1857L43.4908 17.5926C44.4393 17.3213 45.0498 17.2195 45.7279 17.2195C47.3549 17.2195 48.2024 17.9315 48.2024 19.2875C48.2024 19.6605 48.1686 19.9315 48.033 20.7111L47.6599 23.2536L47.5923 23.6944L47.5243 24.0666L47.4905 24.304V24.5084H47.4913H47.4916ZM52.5089 17.3219C52.4743 17.288 52.4071 17.288 52.3389 17.288C51.7293 17.288 51.3562 17.5931 50.7799 18.4407L50.9494 17.3557H49.2547L48.1018 24.5084H50C50.6443 20.1356 50.8479 19.3896 51.7293 19.3896H51.8649C52.0344 18.542 52.2718 17.8982 52.5769 17.3216H52.5092V17.3219H52.5089Z" fill="white"/>
</g>
<defs>
<clipPath id="clip0_34_8180">
<rect width="63.2204" height="40" fill="white"/>
</clipPath>
</defs>
</svg>
