<svg width="40" height="40" viewBox="0 0 40 40" fill="none" xmlns="http://www.w3.org/2000/svg">
<g clip-path="url(#clip0_34_8164)">
<path d="M19.9994 0.00116976V0C8.95453 0 0 8.95453 0 19.9994C0 31.0443 8.95453 40 20 40C31.0455 40 40 31.0461 40 19.9994C40 8.95277 31.0461 0.00116976 19.9994 0.00116976ZM29.1715 28.8457C28.8124 29.4347 28.0445 29.6189 27.4572 29.2598C22.7606 26.3892 16.8492 25.7412 9.88741 27.3315C9.21655 27.4853 8.54803 27.0648 8.39479 26.3939C8.24097 25.7231 8.65975 25.0545 9.33236 24.9013C16.951 23.1595 23.4859 23.9093 28.7574 27.1303C29.3446 27.4912 29.5312 28.2573 29.1703 28.8452L29.1715 28.8457ZM31.6192 23.4005C31.1671 24.1339 30.2073 24.3644 29.4745 23.9134C24.0994 20.6094 15.9041 19.6526 9.54525 21.5827C8.72057 21.8318 7.84969 21.3669 7.59936 20.5439C7.35078 19.7193 7.81576 18.8501 8.63927 18.5992C15.9029 16.3954 24.9323 17.4628 31.1057 21.2569C31.8392 21.7084 32.0708 22.6682 31.6192 23.4005ZM34.3927 17.0756C33.8675 17.9646 32.7165 18.2576 31.8304 17.7295C25.3832 13.9009 14.7495 13.5488 8.59541 15.4169C7.60696 15.7163 6.56178 15.1589 6.26232 14.1705C5.96286 13.182 6.52025 12.1374 7.50928 11.8368C14.5741 9.69206 26.3185 10.1067 33.7394 14.5121C34.6285 15.0396 34.9197 16.1877 34.3933 17.0756H34.3927Z" fill="white"/>
</g>
<defs>
<clipPath id="clip0_34_8164">
<rect width="40" height="40" fill="white"/>
</clipPath>
</defs>
</svg>
