<svg width="60" height="40" viewBox="0 0 60 40" fill="none" xmlns="http://www.w3.org/2000/svg">
<g clip-path="url(#clip0_34_8173)">
<path d="M58.4834 40H0V0H59.4943V40H58.4834Z" fill="#1D5B99"/>
<path fill-rule="evenodd" clip-rule="evenodd" d="M58.4834 38.9905H1.01088V1.00977H58.4834V38.9905Z" fill="white"/>
<path fill-rule="evenodd" clip-rule="evenodd" d="M21.7829 26.1682L25.5153 13.8762H28.8457L25.1128 26.1682H21.7829ZM20.2941 13.8796L17.2983 19.0905C16.5359 20.4555 16.0898 21.1447 15.8755 22.0066H15.8298C15.8831 20.9138 15.7304 19.5712 15.716 18.8124L15.3851 13.8794H9.77916L9.722 14.2099C11.162 14.2099 12.0163 14.9325 12.2512 16.4106L13.344 26.1677H16.7943L23.7707 13.8791H20.2944L20.2941 13.8796ZM46.1928 26.1682L46.1012 24.3405L41.9431 24.3371L41.0919 26.1682H37.4765L44.0327 13.8997H48.4704L49.5804 26.1682H46.1928ZM45.8112 18.9174C45.7736 18.0089 45.7431 16.7761 45.8044 16.0298H45.7554C45.5528 16.64 44.6824 18.4727 44.2995 19.3736L43.0605 22.0676H45.9801L45.8112 18.9174ZM32.3419 26.5173C29.9908 26.5173 28.4302 25.7725 27.3165 25.108L28.9029 22.6885C29.9033 23.2472 30.6882 23.8919 32.4954 23.8919C33.0759 23.8919 33.636 23.7414 33.9542 23.1914C34.4169 22.3924 33.8472 21.9617 32.5466 21.2263L31.904 20.8092C29.9754 19.4933 29.1409 18.243 30.049 16.0608C30.6302 14.6651 32.1621 13.6069 34.6905 13.6069C36.4332 13.6069 38.0679 14.3603 39.0198 15.096L37.1961 17.2321C36.2664 16.4815 35.4965 16.1017 34.615 16.1017C33.9122 16.1017 33.3781 16.3726 33.1936 16.7378C32.8467 17.4242 33.3061 17.8921 34.3196 18.5204L35.0833 19.0058C37.425 20.481 37.9823 22.0274 37.3961 23.4729C36.386 25.9625 34.4096 26.5175 32.3422 26.5175L32.3419 26.5173ZM50.572 15.542H50.4276V14.6651H50.7607C50.9729 14.6651 51.0807 14.7391 51.0807 14.9174C51.0807 15.0764 50.9836 15.1421 50.8518 15.1567L51.0979 15.5423H50.9348L50.708 15.1677H50.572V15.5423V15.542ZM50.733 15.0441C50.8413 15.0441 50.9369 15.0337 50.9369 14.9065C50.9369 14.8006 50.833 14.7879 50.7466 14.7879H50.572V15.0441H50.733ZM50.7288 15.8812C50.2726 15.8812 49.9479 15.5399 49.9479 15.0887C49.9479 14.6124 50.3081 14.2965 50.7288 14.2965C51.1496 14.2965 51.5051 14.6121 51.5051 15.0887C51.5051 15.5652 51.1441 15.8812 50.7288 15.8812ZM50.7288 14.4341C50.3848 14.4341 50.1178 14.7031 50.1178 15.0887C50.1178 15.4487 50.3512 15.7433 50.7288 15.7433C51.0682 15.7433 51.3352 15.4761 51.3352 15.0887C51.3352 14.7013 51.0682 14.4341 50.7288 14.4341Z" fill="#1D5B99"/>
<path fill-rule="evenodd" clip-rule="evenodd" d="M57.0684 29.9856H2.52707V37.2742H57.0684V29.9856Z" fill="#E7A83A"/>
<path fill-rule="evenodd" clip-rule="evenodd" d="M56.9672 2.8269H2.42606V10.1157H56.9672V2.8269ZM55.7209 36.756H55.5765V35.879H55.9096C56.1218 35.879 56.2296 35.9531 56.2296 36.1314C56.2296 36.2899 56.1325 36.3558 56.0007 36.3704L56.2468 36.7563H56.0837L55.8569 36.3814H55.7209V36.7563V36.756ZM55.8824 36.2581C55.9907 36.2581 56.0863 36.2477 56.0863 36.1202C56.0863 36.0146 55.9824 36.0018 55.896 36.0018H55.7214V36.2581H55.8824ZM55.8783 37.0949C55.422 37.0949 55.0973 36.7542 55.0973 36.3024C55.0973 35.8264 55.4583 35.5104 55.8783 35.5104C56.2982 35.5104 56.6545 35.8261 56.6545 36.3024C56.6545 36.7787 56.2943 37.0949 55.8783 37.0949ZM55.8783 35.6478C55.5342 35.6478 55.2672 35.9174 55.2672 36.3024C55.2672 36.6629 55.5006 36.957 55.8783 36.957C56.2176 36.957 56.4846 36.6903 56.4846 36.3024C56.4846 35.9145 56.2176 35.6478 55.8783 35.6478Z" fill="#1D5B99"/>
</g>
<defs>
<clipPath id="clip0_34_8173">
<rect width="59.4943" height="40" fill="white"/>
</clipPath>
</defs>
</svg>
