<svg width="40" height="41" viewBox="0 0 40 41" fill="none" xmlns="http://www.w3.org/2000/svg">
<g clip-path="url(#clip0_34_8166)">
<path d="M33.9201 5.88995C30.2455 2.10091 25.2044 -0.02491 19.955 -2.81505e-05H19.9215C9.1109 0.00021342 0.214889 8.991 0.214889 19.9163C0.214889 19.9675 0.216084 20.0177 0.216084 20.069C0.256719 23.5425 1.14663 26.9523 2.80622 29.9944L0 40.3561L10.4578 37.6292C13.3468 39.2321 16.5947 40.0585 19.8902 40.0288C30.7408 39.9688 39.6358 30.9268 39.6294 19.9598C39.6552 14.6906 37.5993 9.62319 33.9204 5.88971M19.955 36.6477C17.0338 36.6632 14.1638 35.8711 11.6559 34.3572L11.0083 34.0298L4.78109 35.666L6.40005 29.4489L5.96836 28.7945C4.36494 26.1778 3.51519 23.1611 3.51519 20.0832C3.51519 11.0064 10.9058 3.53729 19.8871 3.53729C28.8685 3.53729 36.2591 11.0064 36.2591 20.0832C36.2591 25.7985 33.329 31.1232 28.5243 34.139C25.9831 35.7841 23.027 36.655 20.0093 36.6477M29.4957 24.5409L28.3084 23.9957C28.3084 23.9957 26.5817 23.2321 25.5024 22.6869C25.3946 22.6869 25.2866 22.5779 25.1785 22.5779C24.9125 22.5844 24.6524 22.6596 24.423 22.7961C24.193 22.9323 24.3152 22.905 22.804 24.6501C22.7015 24.854 22.4911 24.9818 22.2645 24.9774H22.1565C21.9942 24.9499 21.8438 24.874 21.7248 24.7593L21.1851 24.5412C20.0272 24.0457 18.9671 23.3439 18.0552 22.469C17.8393 22.2508 17.5157 22.0327 17.2996 21.8146C16.5008 21.041 15.8107 20.1603 15.2492 19.1969L15.1412 18.9787C15.0475 18.8454 14.9746 18.6983 14.9253 18.5425C14.8971 18.3536 14.9354 18.1605 15.0331 17.9972C15.1314 17.8337 15.4648 17.4518 15.7887 17.1247C16.1126 16.7976 16.1126 16.5795 16.3284 16.3611C16.5529 16.0461 16.6315 15.6485 16.5443 15.2704C16.0414 13.8591 15.4648 12.4757 14.8175 11.1258C14.644 10.853 14.3736 10.6578 14.0619 10.5803H12.8747C12.6588 10.5803 12.443 10.6892 12.2271 10.6892L12.1193 10.7982C11.9035 10.9071 11.6876 11.1255 11.4718 11.2345C11.256 11.3434 11.1482 11.6707 10.9323 11.8889C10.1779 12.8525 9.76034 14.0413 9.74505 15.2699C9.757 16.1343 9.94057 16.9872 10.2845 17.7786L10.3926 18.1057C11.3616 20.1996 12.7169 22.0875 14.3858 23.6684L14.8175 24.1046C15.1316 24.3675 15.4208 24.6598 15.6809 24.9772C17.917 26.9438 20.5731 28.3616 23.4406 29.1218C23.7642 29.2308 24.1961 29.2308 24.5198 29.34H25.599C26.1631 29.3119 26.7148 29.1631 27.218 28.9037C27.4823 28.7827 27.735 28.6365 27.9735 28.4674L28.1894 28.2493C28.4052 28.0311 28.6211 27.9222 28.8369 27.704C29.0477 27.5142 29.2296 27.2936 29.3766 27.0496C29.5839 26.5609 29.7295 26.0483 29.8083 25.5227V24.7591C29.7113 24.6709 29.6023 24.5974 29.4844 24.5409" fill="white"/>
</g>
<defs>
<clipPath id="clip0_34_8166">
<rect width="39.6296" height="40.3561" fill="white"/>
</clipPath>
</defs>
</svg>
